<svg viewBox="0 0 256 256" xmlns="http://www.w3.org/2000/svg" xml:space="preserve" fill-rule="evenodd" clip-rule="evenodd"><path d="M208.5 0A47.5 47.5 0 0 1 256 47.5v161a47.5 47.5 0 0 1-47.5 47.5h-161A47.5 47.5 0 0 1 0 208.5v-161A47.5 47.5 0 0 1 47.5 0h161Z" fill="none"/><clipPath id="a"><path d="M208.5 0A47.5 47.5 0 0 1 256 47.5v161a47.5 47.5 0 0 1-47.5 47.5h-161A47.5 47.5 0 0 1 0 208.5v-161A47.5 47.5 0 0 1 47.5 0h161Z"/></clipPath><g clip-path="url(#a)"><path fill="#e1d4ce" d="M-40-53h420v402H-40z"/><g fill="none" stroke-width="3.2"><path d="M360.6 260.8a41.3 41.3 0 0 0-5.6-2.4 66 66 0 0 1-6.2-2c-1.8-.8-3.5-.9-5.3-1.2a2 2 0 0 1-1.3-.6c-.7-.7-1.4-1-2-.7-.7.2-1.1 0-1.4-.5-.4-.7-1-1-2-1-.5 0-1 0-1.5-.2l-11.8-4.1-4.8-2.3c-1.6-.7-3.3-1.2-5.1-1.3a3 3 0 0 1-1.5-.5c-2-1.4-4-1.5-6.2-.3-.4.2-.8.2-1.2-.2-1-.9-2-1-3.2-.4-.4.2-1 .3-1.4.3l-3.5-.2a2 2 0 0 1-1.3-.4c-1.9-1.6-4-1.5-6.2.1a.9.9 0 0 1-1.4-.4c-.1-.4-.3-.4-.6-.1-.5.5-1 .5-1.5 0l-.4-.7c-.4-.4-.8-.6-1.3-.6l-5-.3c-.5 0-.8-.2-1-.4l-.4-.5c-.4-.4-.8-.4-1.2 0l-.6.5c-.3.3-.5.2-.8 0-1.4-1.7-3-2-5-.8-.4.3-.8.4-1.4.3a3 3 0 0 1-2.1-2c-.2-.5-.6-.6-1 0-.6.8-1.4 1-2.2.2-.5-.4-1-.6-1.7-.7a4 4 0 0 0-2.9.4c-.5.4-1 .3-1.4-.2l-.8-.9a.5.5 0 0 0-.8 0l-.3.7c0 .3-.3.5-.6.7-.6.2-1.1.1-1.6-.2-.7-.4-.8-.9-.2-1.4l.5-.5c.5-.4.4-.6-.2-.6a1 1 0 0 0-.7.3c-.4.3-.8.3-1-.2a18 18 0 0 0-7-6.6 3 3 0 0 0-1.6-.4c-.6 0-1-.1-1.3-.6a2 2 0 0 0-.8-.6c-1.6-.8-2.8-1.9-3.8-3.2-.5-.6-1-.7-1.6-.3-.4.2-.7.1-1-.3-.3-.9-.5-1.8-.5-2.8 0-.7-.2-1-.9-.8h-.3a2 2 0 0 1-1.5-.6 85.4 85.4 0 0 1-8.9-12.4 27.4 27.4 0 0 0-6.3-7.2c-.4-.4-.7-.8-.8-1.3a6 6 0 0 0-2.5-3.6c-.5-.4-.6-.8-.2-1.3l1-.7c.4-.1.5-.3.3-.6-.2-.2-.3-.3-.6-.2a.7.7 0 0 1-.8-.5l-.1-.8c-.1-.6 0-.8.6-.6.3 0 .6.3.8.6.2.4.4.3.6 0 .9-2 1.3-4.3 1.2-6.6" stroke="#f5782f"/><path d="M215.5 184.1c3.3-3.4 8.3-10 15-19.5 8.7-12.2 15-22.2 18.8-29.8" stroke="#e56d2d"/><path d="M249.3 134.8a67 67 0 0 0 6.2-17.3" stroke="#da692d"/><path d="M300 100.6a116 116 0 0 0-28.6 6.5c-7 2.4-12.3 5.9-16 10.4" stroke="#f99244"/><path d="m255.5 117.5-5.3-6" stroke="#dd7e42"/><path d="m250.2 111.4-.3-.3" stroke="#d37b42"/><path d="M215.5 184.1a23 23 0 0 1-6 5.5" stroke="#e3672d"/><path d="M54 278.6A247.7 247.7 0 0 0 32.1 251" stroke="#d74b1b"/><path d="M32.1 251a18.9 18.9 0 0 0-3-7l-8.5-10.1c-.5-.7-1-1-1.5-1s-1.1.4-1.7 1" stroke="#e86228"/><path d="M17.4 234-.7 212" stroke="#a05735"/><path d="M-.7 212.1c3-.5 6 1 9 4.2l2 3.8c.8 1.4 2 2.4 3.6 3 .5 0 .9.4 1.2.8.5.7 1.2 1.3 2.1 1.7.5.2.7.5.8 1 .2.4.4.7.8 1a10 10 0 0 1 5 6c.2.6.5 1 .9 1.4 4 3.8 7.8 7.2 11.5 10.3a10 10 0 0 1 2.2 2.7 15 15 0 0 0 2.3 2.7c2.2 2 3.4 3.3 3.7 3.6A457 457 0 0 0 55.9 267c1.6 1.7 3 3.6 4.3 5.7 1.7 2.8 3.1 4.7 4.4 5.8a65 65 0 0 1 7.6 7.7 1 1 0 0 0 1.7-.5v-.4h.2c1 .3 1.6 1.2 1.9 2.4.2.8.6 1.2 1.3 1.4.6 0 1-.2 1-.8v-1" stroke="#f78042"/><path d="M80.4 290.1c1.8.6 3.6.2 5.6-1.3a1.5 1.5 0 0 0 0-2.4 7 7 0 0 1-3.2-5 2 2 0 0 0-.7-1.2l-3.6-3c-.4-.4-.7-.8-.8-1.3a8 8 0 0 0-1.9-3.2 5465 5465 0 0 1-33.7-37.3 65.5 65.5 0 0 0-8.8-7.7 25.1 25.1 0 0 1-4-4 26 26 0 0 0-4.3-4c-1.9-1.4-3.8-3-5.7-4.8a197 197 0 0 0-5.5-5 27 27 0 0 0-3.9-2.7" stroke="#e86228"/><path d="M10 207.2a44 44 0 0 1-6.2-5c-1.2-1-2.9-1.3-5.1-1" stroke="#f16a2c"/><path d="m-1.3 201.2-2-1.5" stroke="#d74b1b"/><path d="m-3.3 199.7.1-.4c0-.2 0-.3-.3-.4-1.7-.6-2.8-1.7-3.2-3.2" stroke="#f46f32"/><path d="m-6.7 195.7 12.5 5.5" stroke="#f67b37"/><path d="M5.8 201.2c.2.6.6 1 1.2 1 .5.1 1 .4 1.3.7.9 1 1.8 1.4 2.7 1.4" stroke="#f97d31"/><path d="M11 204.3c4.1 3 8.3 5.8 12.4 8.7 1 .7 1.4 2.3 2.5 3.1 9 6.3 17 13.5 24 21.8.3.4.6.9.7 1.4a5 5 0 0 0 1.7 2.4 43 43 0 0 1 10.3 11c.8 1.5 1.7 2.9 2.8 4.2.9 1 2 1.4 2.9 2.6l1.6 2.2A454 454 0 0 1 84 278.2" stroke="#f27839"/><path d="m94 279.7.1-.6c0-.4-.1-.7-.6-.8-.8-.2-1.4-.7-1.6-1.4L91 275c-3-5-6.2-9.6-9.6-14.1" stroke="#ea5725"/><path d="M81.5 260.9c0-.6.2-1 .3-1.2.2-.3.5-.3.9 0 1.7 1.4 2.1 3.4 3 4.7a14.2 14.2 0 0 0 5.8 4.6c.6.1 1.1-.2 1.2-.8v-.2a2 2 0 0 0-.5-1.2c-.4-.4-.8-.6-1.3-.5-.8 0-1.4 0-2-.5-.4-.3-.8-.8-1.2-1.5-.5-1.1-1.1-1.6-1.8-1.5" stroke="#ec662a"/><path d="M85.9 262.8a56.9 56.9 0 0 1 22.4-.2c1.9.4 4.4-.4 7.3-2.3" stroke="#f27839"/><path d="M115.6 260.3c1.7.1 3-.5 4-1.8.3-.5.7-.7 1.2-.8 3-.5 4.7-1.7 5.3-3.8" stroke="#f5844a"/><path d="m126.1 253.9 5.9-4" stroke="#9b4e2d"/><path d="M132 249.9c2.2-.2 4-1 5.6-2.3.5-.4.5-1.2.1-1.7l-3.2-3.7" stroke="#e89263"/><path d="M134.5 242.2c.3-1-.4-2-2-3.3-.8-.6-1.1-1.2-.9-1.7" stroke="#d8642d"/><path d="M131.6 237.2a6 6 0 0 0 .5-2.4c0-.3 0-.4.3-.3l.6.1c.4 0 .6-.3.6-.8 0-2.5-.7-4.8-2-7-.2-.4-.4-.9-.4-1.4-.1-1.7-.6-3.5-1.6-5.3a16 16 0 0 1-1-11.6" stroke="#e96c2e"/><path d="M249.3 134.8c-1 0-1.8.5-2.1 1.4-.2.4-.5.5-1 .3s-1-.1-1.4.4c-.3.2-.6.3-1 .3-.6-.2-1.2 0-1.6.5a6 6 0 0 1-3 2c-.4 0-.7 0-1-.2-.4-.2-.9-.2-1.3 0l-10.8 4.3a4 4 0 0 0-1.1.8c-.5.4-1 .6-1.7.7-.6 0-1 .2-1.5.6a18 18 0 0 0-4.7 6.5c-.2.5-.3 1-.2 1.5.6 3.4.6 6.4 0 9a7.2 7.2 0 0 1-3.5 4.8c-1 .5-1.8 1.1-2.6 1.7-.8.6-1.8 1-2.7 1.4-.6.1-1 .4-1.5.7l-2.7 2.6c-.4.3-.6.8-.5 1.3.3 1.4.2 2.7 0 3.9" stroke="#c8592a"/><path d="m203.4 179.3-11.5-17.4" stroke="#d89d7f"/><path d="M250.2 111.4a4.1 4.1 0 0 1-2.6 2.1 66.9 66.9 0 0 0-6.9 2.1c-.5.2-1 .4-1.3.8a7.5 7.5 0 0 1-5.5 2 1 1 0 0 0-1 .6c0 .2-.3.3-.5.4l-8.7 4.3c-1.4.7-2.7 1.5-4.1 2.4-2.9 1.9-6.4 3.2-8.7 5a27.4 27.4 0 0 0-3.8 3.7c-2 2.3-2.7 5-2 8.2.1.5 0 1-.2 1.5l-3.1 7.2a3 3 0 0 1-1.1 1.3c-1.6 1.1-2 3-4.2 3.4-1 .2-1.8 1.2-1.7 2.3 0 1.2-.5 1.9-1.6 2-.1 0-.1 0 0 .1l.3.4c.2.3 0 .5-.3.5l-1.3.2" stroke="#b3522a"/><path d="m191.9 162-4.3-6.2" stroke="#ce997f"/><path d="m203.4 179.3 6 10.3" stroke="#e3a07f"/><path d="M209.4 189.6c.2 1-.1 1.7-.8 2.5a294.5 294.5 0 0 1-45.1 39.7c-1 .7-2.4 1-4.1 1a7 7 0 0 1-3.8-1.2c-9.8-6.1-19-14.8-27-23.1" stroke="#f4ab82"/><path d="m128.6 208.5-5-6.1" stroke="#e9a581"/><path d="m123.5 202.4-7.2-9c-.6-.8-.6-1.2-.2-1.2" stroke="#d89d7f"/><path d="M116 192.2a60.5 60.5 0 0 0 26 19" stroke="#af897b"/><path d="M-3.3 199.7a10 10 0 0 1-3.7-2.3" stroke="#d8481e"/><path d="M32.1 251c-1.4 0-1 1.6 1.3 4.8" stroke="#cc3a13"/><path d="M33.4 255.8c-.8-.4-1.4-.4-1.6.3" stroke="#e95f2b"/><path d="M31.8 256 24 244" stroke="#903e26"/><path d="M-5.6 187.8c-.6-.2-1.1 0-1.5.3-.5.5-.4.8.2 1.2l5.4 2.8c.3.1.5.4.7.7l.4.8c.2.4.5.7 1 1 1 .4 2 1.1 2.8 2" stroke="#f99447"/><path d="M3.4 196.7c-2-1.4-3.9-2.2-5.8-2.2m0 0c-.4-1.7-1.5-2.5-3.4-2.4-.5 0-.8-.2-1-.7l-.3-1c-.2-.5-.5-.5-.8 0-.5.7-.4 1.3.4 1.9.8.5 2.4 1.2 5 2.2m.1 0c.4 1.2 1.2 1.8 2.3 1.9.5 0 1 .1 1.4.4l7.6 4.4" stroke="#fa8a3f"/><path d="m9 201.2 5.4 4.2" stroke="#fa8d43"/><path d="M14.4 205.4c-.9 0-2-.4-3.4-1" stroke="#f58041"/><path d="M11 204.3c-1-2.2-2.8-3.2-5.2-3.1" stroke="#fa8539"/><path d="M-6.7 195.7a7.4 7.4 0 0 0-3.8-2.3c-.6-.2-.7 0-.2.4l3.7 3.6" stroke="#f67839"/><path d="m-7 197.4-5.8-2.4" stroke="#da5323"/><path d="M35 191.1c23.1 15.3 42.3 35 56.8 58.5 2.3 3.7 4.2 6.1 5.5 7.3 2 1.6 4.2 2.2 6.8 1.9a86 86 0 0 1 10-.8" stroke="#f3804a"/><path d="m114 258 1.3-.1" stroke="#d95c36"/><path d="M115.3 257.9c1.3.4 2.7 0 4.3-1.4" stroke="#f4844d"/><path d="m119.6 256.5 6.5-2.6" stroke="#9d6048"/><path d="M115.6 260.3a46 46 0 0 1-19.1.6c-1.5-.4-2.9-1.6-4-3.7-.3-.4-.3-.8 0-1.3.4-.8.1-1.5-.7-2-.5-1.3-1.5-2-2.8-2.3-.3 0-.5-.2-.7-.4L61.8 222a.7.7 0 0 0-.5-.2c-.5 0-.7-.2-.7-.7a1 1 0 0 0-.6-1 7 7 0 0 1-2.7-1.9c-.5-.6-1.2-.9-2-.9-.9 0-1.2-.4-1.2-1.2 0-1-.3-1.6-1.1-2.1l-3.1-1.9-1.4-.5c-2-.2-3-1.2-3-3 0-.6-.4-1.1-1-1.3-2.4-.9-4.5-2.3-6.1-4.1-.4-.4-.8-.6-1.4-.7-.4 0-.7 0-.9-.3a.7.7 0 0 1-.1-.7c0-.2.2-.3.3-.5.3-.3.3-.6 0-.9a4.9 4.9 0 0 0-2.4-1.3" stroke="#f48954"/><path d="M35.4 198.5c.3 1.1 1.4 1.8 3 2.2" stroke="#f8975a"/><path d="M38.5 200.7a8 8 0 0 0 3.5 2.8c.6.2.7 0 .5-.5a8 8 0 0 0-3.8-3.4" stroke="#f9975c"/><path d="M38.7 199.6c0-1.1-.3-2-1.2-2.4a27 27 0 0 1-4.8-3.4c-1-.8-1.8-1.4-2.6-1.7l-3-1.1" stroke="#f99b60"/><path d="M2.6 191.3c-.6 1 .4 2.4 3 4.1.3.2.4.4.5.8.2.4.4.8.8 1.1l5.8 4.5c1.9 1.5 3.9 2.8 6.1 3.8 2 1 3.7 2.3 5.3 4 1.2 1.2 2.6 2.4 4.4 3.5 3.3 2.1 6.3 5.7 8.3 7.4a1220.5 1220.5 0 0 1 43 43.4l3 3.7c.4.4.6.8.7 1.4a31.5 31.5 0 0 0 7.8 10" stroke="#f89a65"/><path d="M84 278.2c.1-.8 0-1.6-.4-2.2-.2-.4-.5-.7-1-.8a1 1 0 0 1-.7-.8 2 2 0 0 0-.7-1.3 40 40 0 0 1-6-7.8 15 15 0 0 0-2.5-3.1c-1-1-1.7-2.2-2-3.5 0-.6-.3-1-.6-1.5a316.2 316.2 0 0 0-19.3-20.9c-1-1-2.4-2.5-4-4.5-1.2-1.5-2.6-3-4-4.3a374.4 374.4 0 0 0-27-22.2" stroke="#f5854c"/><path d="M15.8 205.3 8.9 200" stroke="#fa924e"/><path d="M9 200c-.9-.7-1.4-1-1.5-.7" stroke="#fa8f4a"/><path d="M132 249.9a312.1 312.1 0 0 1-28.2-30.9" stroke="#906e61"/><path d="m-1.3 201.2 8.6 6.1" stroke="#d54218"/><path d="M7.3 207.3c5.7 5 11.4 10 17.2 14.7 2.6 2.2 5.1 5.1 7.9 7.4 2.6 2.3 4.6 4.1 5.9 5.5 5.5 6 11 12.2 16.4 18.4a185 185 0 0 1 8.7 10.8l8.3 11 4.2 6.5c1.4 2.3 2.8 4.4 4.4 6.4.3.4.7.7 1.2.7l.7.4c.5.5.4.7-.2.8l-1.6.2" stroke="#cc3a13"/><path d="M67 271.6c-16.9-22-36-42-57.3-59.6" stroke="#db603a"/><path d="M9.7 212a169.4 169.4 0 0 0-22.5-15" stroke="#da582e"/><path d="M10 207.2c0 .5.5 1 1.3 1.3l.1.2-.2.3c-.3.2-.5.2-.7 0-1-.9-2-1.4-3.2-1.7" stroke="#e65925"/><path d="m24 196.2 8 5" stroke="#ed682c"/><path d="m32 201.2 2.7 1.7" stroke="#ed6a2c"/><path d="m34.7 203 12.7 10.7" stroke="#ed682c"/><path d="M47.4 213.7c2.4 2.2 4.6 4.4 6.9 6.8 1.5 1.6 3.9 3.8 7 6.6 5 4.3 9 9.2 12.4 14.7 1.7 2.8 3.5 5.1 5.4 7.1l5.9 6 .6 1.4.3 6.5" stroke="#eb6b34"/><path d="M9.7 212h-1c-.8 0-.9.3-.2.9a64 64 0 0 0 2.3 2c1 1 1.5 1.9 1.2 3-.2.4 0 .9.2 1.3s.6.7 1 .9l1.3.8a89 89 0 0 1 3.5 4c3.4 3.8 7.5 7.2 10.8 11a89 89 0 0 0 7 7.2 81 81 0 0 1 9.6 10.5c.5.7 1.3 1 2 1.4.5.3.9.6 1.1 1 1.5 2.3 3.2 4.5 5 6.4l5.3 6.2c2.4 2.8 5.3 7 8.9 8.2h.2l.3-.7c0-.2 0-.5-.3-.6a7.2 7.2 0 0 1-3.2-2.8c-.4-.7-.2-1 .6-.8.3 0 .6.2.9.4.3.2.5.1.7-.2l.2-.5" stroke="#f99561"/><path d="m-.7 212.1-6.7-6.1" stroke="#a26448"/><path d="M40.3 264.4c-1-1.7-2.7-3.7-5.4-6a6.4 6.4 0 0 1-1.5-2.6" stroke="#d8481e"/><path d="M11.2 191.5c0 .4.2.8.8 1 2 1 4.2 1.9 6.3 2.8 2.2.9 4.2 2 6 3.2 4.2 2.8 8.5 5.6 12.9 8.3" stroke="#df461e"/><path d="M37.2 206.8c4 2.5 7.4 5.9 10.3 10 .3.4.4.8.5 1.3l.2 1c0 .5.3 1 .7 1.4 1.8 1.9 3.6 3.9 5.2 5.9 3.5 4.2 8.2 7.6 11.6 12.4 2.9 4.1 4.6 6.6 5.3 7.3 3.7 4.7 7.2 9.6 10.5 14.8" stroke="#e24a1f"/><path d="M91.3 279a238.2 238.2 0 0 0-71.6-78.4" stroke="#ec7148"/><path d="M19.7 200.6c-1.7-3.4-5.7-6.2-12-8.6" stroke="#d73615"/><path d="M47.4 213.7c-2.7-3.2-5.5-6-8.5-8.7-.9-.9-2-1.6-3-2.1" stroke="#f47a3b"/><path d="m35.8 203-2-2.4" stroke="#f47c3c"/><path d="M123.5 202.4c-2.7 1-3.8 3.5-3.3 7.2a5 5 0 0 0 1.2 2.4c1.3 2 2.3 3.6 2.3 6.2 0 2.7.8 5.4 2.3 8 .2.4.3 1 .1 1.4l-.1.6c0 .6.2 1 .7 1.3 1.3.7 1.8 1.6 1.3 3-.1.4 0 .9.2 1.3 1 1.4 2.1 2.5 3.4 3.4" stroke="#ce5d2c"/><path d="m134.5 242.2-19-18.6" stroke="#cd8461"/><path d="m17.4 234 6.5 10" stroke="#95462e"/><path d="M24 244c.7 2.8 1.8 5.3 3.3 7.5a41.5 41.5 0 0 1 5.1 9c.3.4.1.7-.4.8l-1.9-.1c-.5-.1-.9 0-1 .6-.2.4-.5.7-1 .8l-.6.5a3.6 3.6 0 0 1-3.6 1.3 1 1 0 0 0-1 .3l-.6.5c-.4.3-.7.4-1.1 0a3 3 0 0 0-2.6-.4c-.5.1-.7.4-.8 1v.7c0 .3.2.5.5.5.2 0 .4 0 .5.2.5.3.4.5-.1.6a5 5 0 0 0-2.2 1" stroke="#473333"/><path d="m2.4 247 4.8-4.5c.2-.3.3-.5.2-.8 0-.3-.2-.5-.4-.7-.3-.4-.4-.8-.2-1.3.1-.4.5-.6 1-.8.4-.1.6-.4.6-.8v-.7c0-.6.3-.7.8-.2.6.6 1.2.7 2 .2.4-.2.7-.7.8-1.2.2-1.4.6-2.8 1.3-4.2.2-.5.2-1-.2-1.4l-8.5-11" stroke="#544240"/><path d="M247 109c-4.5.3-7.5.7-8.7 1.3-5.3 2.3-10.6 4.5-16 6.6-.3.1-.4.3-.3.6v.5a65.4 65.4 0 0 0-18.6 10.4c0-.1-.2-.3-.5-.4a.8.8 0 0 0-1 .5l-2 5.4c-.2.5-.2 1-.2 1.5.2 1.7.2 3.5 0 5.2a10 10 0 0 1-1.9 4.8c-3 4.3-6.4 7.8-10.2 10.4" stroke="#9f4b2a"/><path d="m187.6 155.8-6.9-9.4" stroke="#c4967f"/><path d="M116 192.2c-.2-.8-.6-1.4-1.1-1.8" stroke="#944226"/><path d="m114.9 190.4-15.3-17.5c-.6-.6-1.1-.6-1.7 0a4.5 4.5 0 0 0-1.1 4.1l-.1 1.5c-.5 1-.7 2-.7 2.7l.2 12.2c0 .6 0 1-.3 1.5a4 4 0 0 0-.6 3c.1.5.4 1 .8 1.2 1.7 1 2.1 2.3 1.2 4.2" stroke="#803b26"/><path d="m97.3 203.3-6.6-8.4" stroke="#a4705d"/><path d="M233.3 98.1a13.8 13.8 0 0 0-4.7-.2.5.5 0 0 1-.3-.3c0-.2-.2-.3-.4-.3-3.2-.2-5.7 0-7.5.4-1 .3-2 .9-3.1 1.8-1 .9-2 1.4-3 1.8a48.4 48.4 0 0 0-12.8 6.1l-9 6c-.5.3-1 .7-1.2 1.2-.5.8-1.2 1.3-2 1.5-.6.2-1 .5-1.3 1a8.7 8.7 0 0 0-.7 7.6 22 22 0 0 1 1.3 6c.1 2.2-.7 4-2.5 5.3a2 2 0 0 0-.8 1.1 7.6 7.6 0 0 1-1.5 3 3 3 0 0 0-.5 1.4c0 .8-.6 1.3-1.5 1.4-.3 0-.4.3-.4.6.3 1.6 0 2.6-.7 2.9" stroke="#894028"/><path d="M180.7 146.4 173 136" stroke="#b88f7d"/><path d="m172.9 136 .9-.1.2-.2v-.5l-.1-.1c-1-.3-1.4-1-1-2.2v-.3l-.5-.2c-.3 0-.3-.2-.1-.5 2.5-2.4 4.3-5 5.4-7.6.4-.8.3-1.7-.1-2.6-.2-.4-.3-1-.3-1.4a9.4 9.4 0 0 0-4.6-9.6" stroke="#6a3224"/><path d="m159 120.2 9.6 10.6" stroke="#996c5b"/><path d="m168.6 130.8-2.6.4a1 1 0 0 0-1 .8 2 2 0 0 1-1.1 1.5c-.5.3-1 .3-1.3-.1a21.4 21.4 0 0 0-12.2-6.3 2.4 2.4 0 0 0-2.5 2.8c.4 3 1 6 2 9a504.3 504.3 0 0 0 5.7 18.1 2 2 0 0 1-1.9 2l-3.4.2a3.5 3.5 0 0 0-3.1 3.6c0 3.1.9 6.2 2.4 9.4 3.7 7.6 7.7 14.3 12 20.1 1.6 2.2 1.2 2.6-1.1 1.1L154 189a1.6 1.6 0 0 0-2.6 1.6 37.7 37.7 0 0 0 10.5 18.1c4.6 4.4 7 9.2 5.6 15.4a1 1 0 0 1-1.8.5 38.4 38.4 0 0 0-11.6-7.4 86.7 86.7 0 0 1-12-6" stroke="#e7c9b3"/><path d="M142 211.1c.2 0 .3-.1.3-.3l-.1-.3a89.5 89.5 0 0 1-16.1-11.7 211.7 211.7 0 0 1-27.4-30.4" stroke="#a36e5a"/><path d="m172.9 136-4.3-5.2" stroke="#a6877c"/><path d="M31.8 256a923 923 0 0 1 25 48.4c1.5 3 3.5 5.7 5.1 8.7.4.6 1 1.2 1.7 1.9.9.7 1.3 1.4 1.4 2.2" stroke="#9b4b30"/><path d="m-4.5 188.2-.5.3c-.4.3-.4.5 0 .7 2 .8 3.7 1.7 5 2.7.6.6 1.3 1 2.1 1.4.9.4 1.5 1.1 1.8 2 .2.6.4 1 .8 1.4l2.8 2.6" stroke="#f99952"/><path d="M7.5 199.3a9.2 9.2 0 0 1-4.1-2.6" stroke="#fc9a48"/><path d="M9 200v1.2" stroke="#fe9444"/><path d="M15.8 205.3c-1.6-.5-2-.4-1.4 0" stroke="#f98a46"/><path d="M-15.5 181.3c1.3.9 2.8 1.3 4.5 1.4 1 0 1.9.3 2.7.9.1 0 .1 0 0 0a1 1 0 0 0-.6 0c-.4.2-.4.4 0 .5l5.6 2.2" stroke="#ce2f10"/><path d="m-3.3 186.3 8 3.6" stroke="#cc3a13"/><path d="m4.7 189.9 3 2.1" stroke="#ce2f10"/><path d="M7.6 192c.7-.1 1 .2.9.9 0 .4-.3.6-.8.6h-.5" stroke="#c52a0c"/><path d="m7.2 193.5-4.6-2.2" stroke="#d9653f"/><path d="m2.6 191.3-7-3" stroke="#da582e"/><path d="m-4.5 188.2-1.1-.4" stroke="#db642c"/><path d="m-5.6 187.8-10-3.2-1.5-.7a27.9 27.9 0 0 0-10.6-2.5" stroke="#da5323"/><path d="M99.7 224.7c7.7 9.4 14.3 20 19.9 31.8" stroke="#9a4f30"/><path d="M115.3 257.9c.8-.1 1.3-.3 1.3-.5.3-.9 0-1.8-.6-2.4a22 22 0 0 1-4.6-5.3 262 262 0 0 0-15-21.2 25.7 25.7 0 0 0-3.6-4c-.5-.3-.7-.2-.9.3l-.1.7" stroke="#d64b1e"/><path d="M91.8 225.5c-7-9-14.6-17.3-22.8-24.6" stroke="#f48d56"/><path d="m90.2 213.5 9.5 11.2" stroke="#9d6851"/><path d="M99.7 224.7c-3.2-2.2-7-5.9-11.5-11-3.9-4.5-10.1-9.9-18.9-16" stroke="#f48d56"/><path d="m93 200.5 10.8 18.5" stroke="#9c7369"/><path d="M103.8 219c-2.7-.7-5-2.8-6.8-6.3-.3-.5-.7-.7-1.2-.8a1 1 0 0 0-.8.2c-.5.3-.6.8-.3 1.3l4.2 6.4c.4.5.3.6-.2.2-2.5-2.1-5-4.6-7.5-7.5-.4-.5-.7-.5-1 .1v1" stroke="#4e2f34"/><path d="M90.2 213.5a171 171 0 0 0-25.4-21.2" stroke="#a96d58"/><path d="m-9.8 230 12.2 17" stroke="#a28a7c"/><path d="m2.4 247 14.1 21.9" stroke="#9a8478"/><path d="m21 294.8 9.5 7c.4.4.6.3.4-.2a239 239 0 0 0-22.7-44 382.6 382.6 0 0 0-58-71.2" stroke="#b39e91"/><path d="M18.8 178.8c1 1.2 2.3 2.1 3.8 2.7 1.8.8 3.2 1.4 4 2 1.8 1 3.7 1.8 5.8 2.3m-.4-.8 2.5 3.3" stroke="#e15523"/><path d="M34.5 188.3a215 215 0 0 0-16.5-8.4c-.2-.1-.4-.1-.4.1l.1.4c.1.3 0 .4-.2.5l-1.6.2" stroke="#df461e"/><path d="m16 181.1-3.9-1.4" stroke="#ea7343"/><path d="m0 179.5 34 18.7" stroke="#fe9444"/><path d="M34 198.2v.6" stroke="#f99352"/><path d="M34 198.8c-1.3 0-3-.6-5.2-2.1" stroke="#f88742"/><path d="M28.8 196.7a5.6 5.6 0 0 0-4.3-1.7" stroke="#fa8d42"/><path d="m24.5 195-5.4-3.2" stroke="#fa8738"/><path d="M28.6 192.7c3.1 1.5 5.9 3.5 8.3 6" stroke="#fa9d55"/><path d="m36.9 198.7 1.6 2" stroke="#fa9951"/><path d="M38.7 199.6a5 5 0 0 0-1.8-.9" stroke="#fc9d57"/><path d="M34.5 188.3c1.7 2.4 1.9 3.3.6 2.8" stroke="#e75325"/><path d="m35 191.1-19-10" stroke="#ec683f"/><path d="m54.5 200.6 8.2 4.5" stroke="#f57335"/><path d="m112.2 256 1.9 2" stroke="#d5471b"/><path d="m16.4 186.7 19 11.8" stroke="#fc984c"/><path d="M35.4 198.5c-.1.3-.6.2-1.4-.3" stroke="#fa9656"/><path d="m10.6 178.7 1.5 1" stroke="#ec7b39"/><path d="M12.1 179.7c-.3.4-1 .5-1.8.3-.6-.2-.7 0-.4.4.5.9 1.2 1.3 2.3 1.5h.4c.3.2.4.4.4.6-.1.4.2.7.5.8 1.5.2 3 .8 4.2 1.7 1.1.8 2.4 1.5 3.7 2.1 2.2 1 4 2.2 5.8 3.9" stroke="#f89d5a"/><path d="M27.2 191c-.2.3.2 1 1.4 1.7" stroke="#fca256"/><path d="M28.6 192.7c-1.4-.9-2.7-1.5-4-1.8a3 3 0 0 1-1.2-.7 15 15 0 0 0-7-3.5" stroke="#f99f50"/><path d="M16.4 186.7.1 179.5" stroke="#fd9e4c"/><path d="M0 179.5a57.4 57.4 0 0 0-17.8-5.4" stroke="#fc9a48"/><path d="m7.2 193.5 12.5 7.1" stroke="#e36b43"/><path d="M114.9 190.4c-.3-.2-.6-.2-.8 0l-.3.7c0 .1 0 .1 0 0v-.5c-.3-.3-.4-.2-.4.1l-.1.6c-.2.3-.5.4-.9.3-2.4-.7-3.9 0-4.3 2.2-.8 4-.9 9.4-.2 16.2 0 .7.3 1.4.7 2 .5.9.8 1.8 1 2.7 0 .5.3 1 .7 1.3 2.5 2.2 4.2 4.8 5.2 7.6" stroke="#a94e2a"/><path d="m115.5 223.6-18.2-20.3" stroke="#b97d60"/><path d="M159 99c1.8 2.2 3 4.2 3.8 6.2.1.4.1.8-.1 1.3l-2.7 5.7-.8 1.3c-1.2 1.2-1.3 3.5-.3 6.7" stroke="#4e2725"/><path d="M159 120.2a263.1 263.1 0 0 0-49-38.4c-6.5-4-13-7.2-19.3-9.9" stroke="#8f695c"/><path d="m90.7 72-10.6-3.7" stroke="#906b5f"/><path d="M80.1 68.3a33.4 33.4 0 0 0-13.6-1.7c-30.5 2.8 9.8 67.7 16.3 77.9" stroke="#937064"/><path d="m82.8 144.5 14.8 22.7" stroke="#906b5f"/><path d="M97.6 167.2c-2-.6-3.9-2-5.4-4.4-.2-.2-.4-.3-.7-.2-.2 0-.3 0-.4.2-.1.2-.2.4 0 .7 0 .3 0 .5.2.7.2.4.2.7-.1 1-2 2-.9 4.3-1 6.1a105 105 0 0 0-.2 16.8c0 .5-.1.9-.4 1.3-.3.3-.5.7-.4 1 .2 1.5.7 3 1.5 4.5" stroke="#572924"/><path d="m90.7 194.9-.9-.5c0-.1-.2-.2-.3-.1l-.2.4v.2l3.7 5.6" stroke="#906b5f"/><path d="M93 200.5a7 7 0 0 1-3.1-1.8c-.5-.5-.8-1.1-.8-1.8s-.2-1.2-.8-1.6c-.6-.3-.8-.9-.8-1.5l.2-2.4c0-.3 0-.5-.4-.5h-.5c-.4 0-.7-.3-.9-.6l-15.3-25" stroke="#4f2c31"/><path d="m70.6 165.2-6.6-12" stroke="#543036"/><path d="m64 153.2-4-7.7" stroke="#533738"/><path d="m60 145.5-8-16.2" stroke="#836b6e"/><path d="M-12.8 197.1h-.5c-.2.2-.2.4 0 .6 2.7 2.6 4.7 5.4 6 8.3" stroke="#af7458"/><path d="m-7.4 206 12 13.7" stroke="#594b4c"/><path d="m4.6 219.7-4.3.7c-.4 0-.5.2-.4.6v.5c.1.5-.1.8-.7 1-1 .3-1.7.6-2 1a25.2 25.2 0 0 1-7 6.4" stroke="#615250"/><path d="M-9.8 230a397.6 397.6 0 0 0-35.7-41c-2.5-2.4-8.5-7.7-18.1-16" stroke="#a79488"/><path d="M24.5 195c.2.3.6.7 1.2 1" stroke="#f98439"/><path d="m25.7 196-1.7.2" stroke="#f87a31"/><path d="M24 196.2h-.7" stroke="#ee6b2a"/><path d="m23.3 196.1-4-2.5" stroke="#ea6728"/><path d="m26.2 196.3 6.1 4.1" stroke="#fa8135"/><path d="m32.3 200.4-.3.8m3.8 1.8h-1" stroke="#f67934"/><path d="M23.3 196.1c3.2 2.2 6.4 4.4 9.6 6.4 1.4.9 2.8 2.3 4.3 4.3m-29.3-18a12 12 0 0 0 3.3 2.7" stroke="#e15523"/><path d="M11.2 191.5 4.7 190" stroke="#df461e"/><path d="M9.3 189a8.8 8.8 0 0 0 4.8 2.5" stroke="#e95d26"/><path d="m14.1 191.5.6.4c.7.4.6.6-.2.5a9.3 9.3 0 0 1-3.3-.9" stroke="#e15523"/><path d="m28.8 196.7-2.6-.4" stroke="#fa8a3d"/><path d="M26.2 196.3c.4 0 .3 0-.5-.3" stroke="#f9813b"/><path d="m28.8 196.7 5 4" stroke="#f8843d"/><path d="M33.8 200.6c-.5 0-1 0-1.5-.2" stroke="#fa8235"/><path d="M90.7 72c0 1.6-1.8 1.6-5.4 0-.8-.4-1.7-.4-2.3 0l-.5.4a.7.7 0 0 0 0 1.1c7 3.5 16.4 8.5 28 15 3.8 2.1 7.3 4.3 10.5 6.5.4.3.4.7 0 1a8.2 8.2 0 0 0-3.4 8v1.5l-1.4 6.4c0 .3.1.4.4.4h.6c1-.1 1 0 0 .3h-.6c-.3.1-.5.3-.6.6-.1.9 0 1.7.3 2.5l.2 1.4-1 32.7c0 .5 0 1 .2 1.4.4 1 .2 2.1-.4 3.4a.8.8 0 0 1-1.2.3l-1.9-1.2c-.4-.3-.6-.8-.6-1.3l.2-4c0-.3 0-.4-.2-.4h-.5c-.3 0-.4 0-.4.4l-.2 3.7c0 .5.1 1 .5 1.3 1.5 1.8 1.4 3.5-.4 5.1a3 3 0 0 0-.6 1.4c0 .8.3 1.5.8 2.1.4.4.3.7 0 1l-.4.4c-.5.4-.5.8 0 1.2l.6.4c.6.5.6.9-.1 1.2l-1.5.7a1 1 0 0 1-1-.2l-3.3-2.3c-.2 0-.3 0-.3.2s0 .4-.2.6c-.3.3-.6.3-1 0l-.5-.6c-.3-.3-.7-.4-1.1-.2-1 .6-1.6 1.4-1.8 2.5 0 .4-.3.7-.6.9a3 3 0 0 0-.9.6" stroke="#dcb093"/><path d="M98.7 168.4c-.5-1-.9-1.4-1.1-1.2" stroke="#a4705d"/><path d="m214.3 85.3-12.7-.1c-.3 0-.7 0-1 .2a77.4 77.4 0 0 0-6.6 4 44 44 0 0 1-4.4 2.1 50 50 0 0 0-13.5 8.3c-.5.4-.9.9-1 1.5-.4 1-1 1.7-1.7 2-.4.3-.7.6-.8 1-.3 1-.4 1.8-.3 2.6l-.1 1c-.4.6-.2 1.6.5 2.8" stroke="#743424"/><path d="M172.7 110.7 159 99.1" stroke="#622c23"/><path d="M159 99c-17-14-33.8-26.4-50.3-37.2A378.2 378.2 0 0 0 47 29a66.5 66.5 0 0 1-12-6.8" stroke="#572924"/><path d="M-6.2 183.5c.4.7 1 1.2 2 1.4h.4c.4 0 .6.5.5 1.4" stroke="#df461e"/><path d="m91.8 225.5 12.8 17.5" stroke="#d9653f"/><path d="M22 168a218.8 218.8 0 0 1 42.8 24.3" stroke="#a96047"/><path d="M64.8 192.3c-.4.3-.6.6-.6.9 0 .2.1.4.5.7l4.6 3.7" stroke="#f89a65"/><path d="M69.3 197.6c-.7.3-.8 1.3-.3 3.3" stroke="#f58045"/><path d="M69 200.9h-.6" stroke="#f89a65"/><path d="m68.4 201-5.2-3.6a1 1 0 0 0-1.5 1 7 7 0 0 0 1.8 2.9" stroke="#fa9e66"/><path d="M63.5 201.3c5.6 4.6 9 8 10.2 9.8 2.8 4.2 6.5 7.2 9.5 11.2.3.4.7.8 1.2 1 1.7.8 3.3 1.9 4.7 3.3l.5.2h.5c.4 0 .9.2 1 .6 2.8 5 6.2 9.5 10.2 13.5.4.4.8 1 1 1.6 1.2 2.3 2 2.5 2.3.5" stroke="#f89a65"/><path d="m104.6 243 7.6 13" stroke="#da582e"/><path d="M112.2 256c0 2-1.2 2.1-3.5.7-.5-.2-.8-.7-.9-1.2-.3-1.4-1.2-2.2-2.8-2.3-.4 0-.9-.2-1.2-.6a123 123 0 0 1-11-13.1c-3.3-4.7-6.8-9-10.5-13.1l-10.6-11.7-3.9-5a17 17 0 0 0-5.1-4.6" stroke="#f37c42"/><path d="m62.7 205.1-.3-1.2" stroke="#fa8548"/><path d="M62.4 204c-.1-1-.8-2-2-2.8" stroke="#f98c4c"/><path d="m60.4 201.2-10.6-9.4" stroke="#fa8548"/><path d="M49.8 191.8a46.9 46.9 0 0 0-5-4.7c-1-1-2-2-2.8-3.5-.8-1.4-1.7-2.6-2.8-3.7l-.8-1.1c-.4-.5-.9-.8-1.5-.8a.7.7 0 0 1-.6-.5c-.4-1-1.1-1.6-2.3-1.8-.5 0-.9-.3-1.2-.7a2 2 0 0 0-1.7-.7c-.5 0-1-.1-1.5-.4L17 167.5" stroke="#fa924e"/><path d="m17 167.5-2.3-.8" stroke="#fa8f4a"/><path d="M14.7 166.7c-1.6 0-3-.3-4.3-1.1l-3.7-2a497 497 0 0 1-13.5-4.3 116.4 116.4 0 0 0-28-6c-.2 0-.3-.1-.4-.3a2 2 0 0 0-1-.6c-6.2-1.2-12.3-2-18.5-2.3a2 2 0 0 1-1.7-1" stroke="#f98a44"/><path d="M45.7 150.5a2 2 0 0 0-.3 1.3c0 .2.1.3.3.3h.5c.4 0 .6.3.6.7 0 .4 0 .7-.3.9" stroke="#5f3740"/><path d="m46.5 153.7-3 2a.7.7 0 0 0 0 1.2c.9.7 1.5.2 1.8-1.3" stroke="#533339"/><path d="M45.3 155.6h.8c.5.2.7.4.6 1v.4c0 .2 0 .3.2.3h.5c.3 0 .5 0 .6-.4.1-.4.3-.7.6-.9.5-.3.8-.2 1 .3a6.2 6.2 0 0 0 3.3 2.9" stroke="#5f3740"/><path d="M53 159.2v.5c0 .3.1.6.4.9l2.2 2" stroke="#533339"/><path d="M55.6 162.5c1-.2 1.8-.8 2.5-1.7l.4-.2c.2 0 .3 0 .5.2.4.2.4.5 0 .9-1 .8-2 1.8-2.8 2.8-.7.8-.6 1 .3.5a9.5 9.5 0 0 0 3.8-3.4c0-.2 0-.3-.2-.4H60c-.6-.3-.6-.4 0-.3.6 0 .9-.2.9-.8 0-.4.2-.6.6-.7.7-.1 1-.5.7-1.3 0-.1 0-.2-.2-.2l-.6-.1c-.2-.2-.2-.3.1-.2h.7c.4-.1.5-.3.5-.7-.2-1.2-.8-2-2-2.4a2 2 0 0 1-1-.9c-.5-.7-1-.9-1.7-.6" stroke="#634248"/><path d="M58 153c-.2 0-.4-.2-.5-.3m13.1 12.5c-.5 1.6-1.3 1.5-2.2-.2-.2-.4-.5-.5-.9-.3l-.3.3c-.4.6-.3.9.5.8.5-.1.8.2 1 1v.1a.8.8 0 0 1-1 .8c-1-.2-1.5-.6-1.6-1.3 0-.5-.3-.7-.8-.5a17 17 0 0 0-8.2 6.7v.2l.4.3h.3l5-4.5h.3l.3.4v.5l-6.4 6.7c-.3.3-.7.5-1.2.5-.4 0-.7.2-.9.6 0 .2-.2.4-.5.5-.3.2-.5.1-.7-.1a.7.7 0 0 1-.1-.7l.4-1c.2-.3.1-.5-.2-.6a2 2 0 0 1-.5-.2.6.6 0 0 0-1 .4c0 .5-.2 1-.5 1.5-.3.7-.8.7-1.3.2a2 2 0 0 1-.3-1c0-.6-.2-.9-.7-1-.3-.1-.6-.2-1-.1-.6 0-1 .3-1 .9-.1.4-.3.6-.7.8-.5.3-1 .2-1.5-.1-.7-.5-1.5-.8-2.3-1-2.1-.5-4.3-1.5-6.6-3-.5-.3-1-.5-1.7-.5-.6 0-1-.3-1.4-.8-.3-.4-.6-.7-1.1-.8-2.1-.3-4-1-5.6-2.3" stroke="#5f3740"/><path d="M36.3 133.8c-.5 0-.8.3-.8.8 0 .3.2.5.4.6l5.7 3c.4.3.8.3 1.2 0 .4 0 .6 0 .7.4l.5.5 12.4 6.3a.6.6 0 0 1-.1 1.1c-.6.2-1.2.1-2-.2-.5-.2-1 0-1.2.5-.5 1-1.2 1.1-2.2.5-1.5-.9-2-2-1.8-3.1.1-.4 0-.7-.5-.8-.8-.3-1.4 0-1.7.6l-.4.4a1.1 1.1 0 0 1-1.8-.7c-.1-1-.5-1.3-1.2-1.1l-.4.1a1.2 1.2 0 0 0 0 2c1.2.9 1.3 1.8.5 2.7" stroke="#6a4a50"/><path d="M43.6 147.4a11 11 0 0 0-3.2-3.9c-.5-.4-.8-.3-1 .3v1c0 .4-.2.6-.5.7h-.4c-.5 0-.7-.2-.8-.6-.2-1.7-1-3-2.4-4-.2-.1-.3-.1-.4 0l-.2.5c0 .3.1.5.4.7 1 .7 1.4 1.6 1 2.8-.2.2-.4.4-.7.4l-.5-.1c-.5 0-.7-.3-.6-.9.2-.8 0-1.4-.8-1.8a1 1 0 0 1-.6-1c0-.3-.2-.5-.6-.6-.6 0-1.1 0-1.5.4-.6.3-.5.5.1.6.7 0 1.3.3 1.8.9.4.6.5 1.2.3 1.7-.3.6-.7.7-1.2.3l-1-1c-.2-.4-.4-.4-.6-.2-.2.1-.2.2-.3.4 0 .2 0 .5.2.7l.7.7c.4.2.4.6.2 1l-.6.3c-.3 0-.5 0-.7-.3-.1-.3-.2-.6-.1-.9.1-.7-.1-.8-.7-.5l-.6.4a.7.7 0 0 0 .5 1.3c.6-.1.9.1.6.8-.2.6 0 1 .7 1 .3 0 .5 0 .7.2.2.2.2.4.1.7-.2.3-.2.7-.1 1 0 .5.3.6.6.3l1.8-1.4c.7-.5 1-.3.8.5-.2.8-.6 1.4-1.3 1.7-.2 0-.3.2-.4.5l.1.7c.3.4.6.4 1 .1l1.5-1c.2-.2.4-.2.5 0l.2.4c.2.3.1.4-.1.6a11 11 0 0 0-2.6 2.3c-.5.5-.4.9.3 1 .4.2.5.4.5.8 0 .5.3 1 .7 1.2.6.5 1.1 1.1 1.6 2 .2.5.2 1-.2 1.4-.6.6-.6 1.2 0 1.9.2.3.2.5-.3.5h-1.1c-.6 0-.9.2-1 .7l-.2.8-.2.3h-.5c-.2 0-.3-.2-.3-.5.2-.8.1-1.5-.3-2-.3-.5-.7-.6-1.2-.3a5 5 0 0 0-1.8 2.6c-.2.5-.5.7-1 .8h-4.4l-.3.1c0 .2 0 .3.2.3 1.3.2 2.3.8 3.2 1.7" stroke="#6b434c"/><path d="M26.6 168.4c-2.4-1.3-3.9-1.5-4.5-.5" stroke="#663f48"/><path d="M22 168a269 269 0 0 0-61.3-18.2" stroke="#b56c54"/><path d="m-6.3 310.2-9.4-16.9a297 297 0 0 0-32.1-47c-9-10.7-20.2-21.4-33.6-32.1" stroke="#73625f"/><path d="M14.7 166.7c1.8 3.2 3.9 5 6.1 5.5.5.1 1 .3 1.4.6 1.5 1.1 3 2.1 4.6 3 .4.3.7.6 1 1.1.3.8 1 1.3 1.8 1.6.5.2.8.5 1 1l1.3 1.3a20 20 0 0 1 4.6 3c.4.4.8.6 1.3.8a6 6 0 0 1 3.5 2.3" stroke="#fd8c3a"/><path d="m41.3 186.9 2.6 3" stroke="#fa893b"/><path d="m44 190-14.3-8.7" stroke="#fa7f33"/><path d="m29.7 181.3-18.2-8.8c-.6-.3-.8-.2-.6.4.1.5.6.9 1.3 1.1a109.9 109.9 0 0 1 7.4 3.3v.4l.5.5c4 2.3 8 4.2 12.5 5.7" stroke="#f97d31"/><path d="m32.6 183.9 8.8 5.8" stroke="#fa7f33"/><path d="M41.4 189.7c-.6-.4-1.1-.6-1.5-.4" stroke="#f5742e"/><path d="m39.9 189.3-8-4.2" stroke="#f0702c"/><path d="M32 185c0 .3.2.5.4.8" stroke="#ed6c2a"/><path d="M32.4 185.8c-4-3.1-8.5-5.4-13.6-7" stroke="#f0702c"/><path d="M18.8 178.8a40 40 0 0 0-15.7-6" stroke="#ed6c2a"/><path d="M3.1 172.7a427 427 0 0 0-43.8-12" stroke="#dc551d"/><path d="M39.9 189.3a7.3 7.3 0 0 0 4.4 3c.2 0 .3-.1.3-.4l-.4-.4" stroke="#e95d26"/><path d="m45.6 192 8.9 8.6" stroke="#f06b30"/><path d="M54.5 200.6c1.3 1.6 2.2 3.1 2.7 4.6.1.6 0 .7-.5.3a83.1 83.1 0 0 1-9.4-8.5 3 3 0 0 0-1.3-.9 16 16 0 0 1-7.7-5.7c-.8-1-2-1.7-3.8-2.1" stroke="#e9622a"/><path d="M3.1 172.7c2.7 2 4.6 3.1 5.7 3.4 2.5.6 3.1 1.5 1.8 2.6" stroke="#cc3a13"/><path d="M10.6 178.7c-5-2.4-10.3-4.5-15.6-6-12-3.7-24.3-6.7-36.6-9.1l-7.6-.8a23 23 0 0 1-7.4-2" stroke="#db642c"/><path d="M-17.8 174.1c1.9 2.2 4 3 6.4 2.3h1.5c3.1 1.1 6 2.4 8.9 3.8l6.9 3.1c2.4 1 4.6 2.1 6.7 3.6 2.2 1.5 4.4 3.1 6.5 4.9" stroke="#fd8d3b"/><path d="m19.1 191.8-4-1.5" stroke="#fa8433"/><path d="m60.4 201.2-1.7-.6c-.7 0-.7 0-.2.5l4 2.8" stroke="#fa833f"/><path d="m60 145.5-23.7-11.7" stroke="#937e7f"/><path d="M36.3 133.8A218 218 0 0 0-.4 122.5" stroke="#9a7e85"/><path d="m-.4 122.5-24.3-4.3" stroke="#9d8289"/><path d="m80.1 68.3-7.2 1.8c-.6 0-.6.4-.2.8l2.3 2.3c.4.3.5.7.6 1.2l.7 7.1-.1 1.4c-.5 1.1-.4 2.2.1 3.2.3.4.4 1 .4 1.4 0 3.4.3 6.8.8 10 .2 1 .1 1.9-.1 3a22 22 0 0 1-.7 2c-.7 2-.2 4 1.2 5.2.6.5.7 1.2.4 2-.2.5 0 .8.4 1 .4.3.7.6.7 1.1 0 2.3 0 3.7.2 4.3 1.2 3.9 1.7 7.8 1.6 11.8 0 .2 0 .3.2.3s.3 0 .5-.2c-.3.4-.4.9-.4 1.3-.1.6.1 1 .6 1.4.9.6 1 1.3.3 2-1 1.4-1 3 0 4.5.3.5.5 1.1.5 1.8 0 .6.2 1.1.5 1.7.5 1 .8 1.6.8 1.9.1 1-.3 1.6-1.4 1.9" stroke="#e0b79d"/><path d="M64 153.2c-1.2.7-2.3.4-3.3-.8-.4-.4-.4-.8 0-1.2.2-.3.2-.6.2-.8-.2-.7-.5-.7-.9-.3l-2.5 2.6" stroke="#634248"/><path d="m57.5 152.7-3.5 3c-.2.2-.5.2-.7 0l-.3-.6c-.1-.5-.4-.7-.9-.7-.4 0-.8.4-1 1 0 .3-.3.4-.7.4a1 1 0 0 1-.5-.4v-.9c0-.4-.2-.6-.5-.6l-.5.1c-.2.1-.3 0-.4-.1a8.1 8.1 0 0 0-2.8-3.4" stroke="#5e3e43"/><path d="m45.7 150.5-2-3" stroke="#634248"/><path d="m-9 179.4 7.6 2.5c.3 0 .5.2.6.5a217.5 217.5 0 0 0 7.9 3.3c1.2.4 2.5 1.2 4 2.3 1.2.9 2.6 1.7 4 2.3" stroke="#f97e33"/><path d="m15 190.3 4.3 3.3" stroke="#f5782f"/><path d="m19.3 193.6-5.2-2" stroke="#e86228"/><path d="M14.1 191.5c-.9-1.3-2.5-2.1-4.8-2.5" stroke="#f16a2c"/><path d="m9.3 189-1.4-.2" stroke="#ec662a"/><path d="m7.9 188.8-14-5.3" stroke="#e86228"/><path d="M-6.2 183.5v-.1" stroke="#ea5725"/><path d="M-6.3 183.4a7 7 0 0 1 3.7.9h.1l.3-.1.2-.4-32.7-9.6" stroke="#f16a2c"/><path d="m-6.3 183.4-7.8-2" stroke="#e74e21"/><path d="M68.4 201c-.9 0-1.8 0-2.8-.4h-.1l-.1.4a.6.6 0 0 1-.7.6l-1.2-.3" stroke="#faab77"/><path d="m49.8 191.8-3.1-1.4" stroke="#fc8a42"/><path d="m46.7 190.4-2.4-2.5" stroke="#fb9146"/><path d="M-.4 122.5c-.1 2 .8 2.8 2.8 2.5.6-.1 1 0 1.1.5.3.9 0 1.2-1 1l-3-.6c-.3 0-.4-.2-.4-.5v-1a1 1 0 0 0-.4-.8.8.8 0 0 0-.6-.2c-.4 0-.6.2-.5.6 0 .8-.2 1.4-1 1.8 0 .1-.2.1-.4 0l-.4-.6a1 1 0 0 0-.9-.6c-.3 0-.7 0-1 .3-.3.3-.8.4-1.2.3a4 4 0 0 0-2.4.2c-.5.1-.8 0-1-.5-.3-.9-.3-1.7 0-2.7l-.5-.2c-.2 0-.3 0-.4.2 0 .9-.4 1.6-.8 2.2-.3.5-.7.7-1.2.8a15 15 0 0 0-4 1.5c-.9.7-1 1.8-2.3 2a2 2 0 0 0-1.2.9 3 3 0 0 0-.5 1.5c0 .6.2.7.7.3.4-.4.8-.6 1.2-.7.2 0 .3.2.3.4 0 .1-.1.3-.3.3-1 .5-1.5 1.3-1.4 2.5 0 .5-.2.7-.6.8-.7.2-.9.6-.7 1.3 0 .2 0 .4-.2.4-.8 0-1.2.4-1.1 1.1 0 .5-.1 1-.4 1.4-1 1.3-2 2.4-3.3 3.3-.3.2-.4.4-.5.7l-.1.9c0 .5-.3.9-.7 1.1-1.5.9-3 1.5-4.5 2l-.4.4-.2.4c-.1.4-.5.6-1 .5-2.8-.4-4.4 0-4.5 1.6" stroke="#744e59"/><path d="M17 167.5c2.1 2 4.6 3.5 7.5 4.5l1.2.7L44.3 188" stroke="#fe9444"/><path d="m44.3 188-3-1.1" stroke="#fa8d42"/><path d="m55.6 162.5.3-1.7m0 0a5 5 0 0 0 3-2.4c.4-.6.2-.8-.4-.7a1 1 0 0 0-1 .8c-.2.4-.5.7-.9.8h-.5" stroke="#523a3a"/><path d="M58 153a9.7 9.7 0 0 1-3.1 3.2c-.4.2-.5.6-.2 1l.6.3c.5 0 .7.3.6.7 0 .5 0 .8.2 1" stroke="#5e3e43"/><path d="M56 159.3c.2.3.1.8-.1 1.5m0 0c-1 .2-1.6-.2-1.8-1.1-.1-.4-.3-.6-.7-.5H53m-7.7-3.6c1.2 0 1.6-.7 1.2-2" stroke="#4e2f34"/><path d="m-9.8 311.9-4.4-9.4a4 4 0 0 0-.9-1.2 18.9 18.9 0 0 1-3.7-4.9 27 27 0 0 0-4.3-6 16.1 16.1 0 0 1-3.4-6c-2-5.8-5.2-11-9.7-16a8 8 0 0 1-1.7-2.7 22 22 0 0 1-.8-3.2c-.1-.5-.4-1-.7-1.3l-4-3.8" stroke="#73595b"/><path d="M-60.6 248.8A329.5 329.5 0 0 1-11.5 324c4.4 9.3 7.3 16.7 9 22" stroke="#bd4828"/><path d="M29.7 181.3c0 .5.9 1.3 2.9 2.6" stroke="#f57531"/><path d="m46.7 190.4.7.6c.5.7.4.9-.6.4l-1.5-.7" stroke="#fa833f"/><path d="m44 190 1.3.7" stroke="#f9813b"/><path d="M45.3 190.7c.3.7.5 1 .3 1.3" stroke="#fa7a37"/><path d="M45.6 192c-.2.1-.7 0-1.4-.5" stroke="#ed682c"/><path d="m44.2 191.5-2.8-1.8" stroke="#f26c2e"/><path d="M-54 251.3c3.9 5 7.6 10 11.1 15.3a1875 1875 0 0 1 14.5 21.7c4.5 6.9 10.7 18.7 18.6 35.6" stroke="#824141"/></g><g fill-rule="nonzero"><path d="m214.3 85.3-12.7-.1c-.3 0-.7 0-1 .2a77.4 77.4 0 0 0-6.6 4 44 44 0 0 1-4.4 2.1 50 50 0 0 0-13.5 8.3c-.5.4-.9.9-1 1.5-.4 1-1 1.7-1.7 2-.4.3-.7.6-.8 1-.3 1-.4 1.8-.3 2.6l-.1 1c-.4.6-.2 1.6.5 2.8L159 99.1c-17-14-33.8-26.5-50.3-37.3A378.2 378.2 0 0 0 47 29a66.5 66.5 0 0 1-12-6.8c5.5-.3 11.1 0 16.7.7 13 1.8 25.8 4.5 38.5 8.1a500.9 500.9 0 0 1 124.1 54.2Z" fill="#6b2e22"/><path d="M35 22.3c4.4 3 8.4 5.3 12 6.8a378.2 378.2 0 0 1 61.7 32.7A579.2 579.2 0 0 1 159 99c1.8 2.1 3 4.1 3.8 6 .1.5.1 1-.1 1.4l-2.7 5.7-.8 1.3c-1.2 1.2-1.3 3.5-.3 6.7-15-15-31.3-27.7-48.9-38.4-6.5-4-13-7.2-19.3-9.9l-10.6-3.6a33.4 33.4 0 0 0-13.6-1.7c-30.5 2.8 9.8 67.7 16.3 77.9l14.8 22.7c-2-.6-3.9-2-5.4-4.4-.2-.2-.4-.3-.7-.2-.2 0-.3 0-.4.2-.1.2-.2.4 0 .7 0 .3 0 .5.2.7.2.4.2.7-.1 1-2 2-.9 4.3-1 6.2-.5 5.6-.6 11.2-.2 16.7 0 .5-.1.9-.4 1.3-.3.3-.5.7-.4 1 .2 1.5.7 3 1.5 4.5l-.9-.5c0-.1-.2-.2-.3-.1l-.2.4v.2l3.7 5.6a7 7 0 0 1-3.1-1.8c-.5-.5-.8-1.1-.8-1.8s-.2-1.2-.8-1.6c-.6-.3-.8-.9-.8-1.5l.2-2.4c0-.3 0-.5-.4-.5h-.5c-.4 0-.7-.3-.9-.6l-15.3-25-6.6-12-4-7.8-8-16.2a390.9 390.9 0 0 1-23-66.3c-2.4-9.8-3.8-19.7-4-29.8 0-7.2 2.6-11.3 10-10.8Z" fill="#432426"/><path d="M332.6 78.1c-.4-4-1.3-7-2.9-8.7-.3-.4-.8-.6-1.3-.6a31 31 0 0 0-13 1.4c-2.3 1-4.5 2.5-6.7 4.8-.6.7-1.1 1.5-1.4 2.4-.4 1-.8 1.8-1.4 2.6a9.6 9.6 0 0 0-1.7 4c-.9 5-1.4 10-1.5 15.1 0 .6-.2 1-.8 1l-2 .5c-8.6.7-18.2 2.9-28.5 6.5-7 2.4-12.3 5.9-16 10.4l-5.2-6-.3-.4c7-6.7 15-11.6 24.2-14.5.6-.2 2.1-.8 4.6-2 2.2-1 4.4-1 6.6-1.8a38 38 0 0 1 15.1-2.2c.8 0 1.1-.3 1-1-.5-9.2 1.2-17.9 7.8-24 2.5-2.3 5.4-3.8 8.6-4.7 3.1-.9 6.5-1.1 10-.8 3.9.4 5.7 2.6 5.6 6.6a271 271 0 0 1-.8 11.4Z" fill="#fda759"/><path d="m80.1 68.3-7.2 1.8c-.6 0-.6.4-.2.8l2.3 2.3c.4.3.5.7.6 1.2l.7 7.1-.1 1.4c-.5 1.1-.4 2.2.1 3.2.3.4.4 1 .4 1.4 0 3.4.3 6.8.8 10 .2 1 .1 1.9-.1 3a22 22 0 0 1-.7 2c-.7 2-.2 4 1.2 5.2.6.5.7 1.2.4 2-.2.5 0 .8.4 1 .4.3.7.6.7 1.1 0 2.3 0 3.7.2 4.3 1.2 3.9 1.7 7.8 1.6 11.8 0 .2 0 .3.2.3s.3 0 .5-.2c-.3.4-.4.9-.4 1.3-.1.6.1 1 .6 1.4.9.6 1 1.3.3 2-1 1.4-1 3 0 4.5.3.5.5 1.1.5 1.8 0 .6.2 1.1.5 1.7.5 1 .8 1.6.8 1.9.1 1-.3 1.6-1.4 1.9-6.5-10.2-46.8-75.1-16.3-77.9 4.4-.4 9 .2 13.6 1.7Z" fill="#e2bca2"/><path d="M80.1 68.3 90.7 72c0 1.7-1.8 1.7-5.4 0-.8-.3-1.7-.3-2.3.2l-.5.3a.7.7 0 0 0 0 1.1c7 3.5 16.4 8.5 28 15 3.8 2.1 7.3 4.3 10.5 6.5.4.3.4.7 0 1a8.2 8.2 0 0 0-3.4 8v1.5l-1.4 6.4c0 .3.1.4.4.4h.6c1-.1 1 0 0 .3h-.6c-.3.1-.5.3-.6.6-.1.9 0 1.7.3 2.5l.2 1.4-1 32.7c0 .5 0 1 .2 1.4.4 1 .2 2.1-.4 3.4a.8.8 0 0 1-1.2.3l-1.9-1.2c-.4-.3-.6-.8-.6-1.3l.2-4c0-.3 0-.4-.2-.4h-.5c-.3 0-.4 0-.4.4l-.2 3.7c0 .5.1 1 .5 1.3 1.5 1.8 1.4 3.5-.4 5.1a3 3 0 0 0-.6 1.4c0 .8.3 1.5.8 2.1.4.4.3.7 0 1l-.4.4c-.5.4-.5.8 0 1.2l.6.4c.6.5.6.9-.1 1.2l-1.5.7a1 1 0 0 1-1-.2l-3.3-2.3c-.2 0-.3 0-.3.2s0 .4-.2.6c-.3.3-.6.3-1 0l-.5-.6c-.3-.3-.7-.4-1.1-.2-1 .6-1.6 1.4-1.8 2.5 0 .4-.3.7-.6.9a3 3 0 0 0-.9.6c-.5-1-.9-1.4-1.1-1.2l-14.8-22.7c1-.3 1.5-1 1.4-2l-.8-1.8a4 4 0 0 1-.5-1.7c0-.7-.2-1.3-.5-1.8-1-1.6-1-3 0-4.4.7-.8.6-1.5-.3-2.1-.5-.3-.7-.8-.6-1.4a2.9 2.9 0 0 1 .4-1.3l-.5.2c-.1 0-.2-.1-.2-.3 0-4-.4-8-1.6-11.8-.1-.6-.2-2-.2-4.3 0-.5-.3-.8-.7-1-.4-.3-.6-.6-.4-1 .3-1 .2-1.6-.4-2a4.6 4.6 0 0 1-1.2-5.2l.7-2.2c.2-1 .3-2 .1-2.9a63 63 0 0 1-.8-10c0-.5-.1-1-.4-1.4-.5-1-.6-2-.1-3.2.1-.4.2-.9.1-1.4l-.7-7.1c0-.5-.2-.9-.6-1.2L72.7 71c-.4-.4-.4-.7.2-.8l7.2-1.8Z" fill="#ddb297"/><path d="M90.7 72a144 144 0 0 1 19.3 9.8 262.8 262.8 0 0 1 49 38.4l9.6 10.6-2.6.4a1 1 0 0 0-1 .8 2 2 0 0 1-1.1 1.5c-.5.3-1 .3-1.3-.1a21.4 21.4 0 0 0-12.2-6.3 2.4 2.4 0 0 0-2.5 2.8c.4 3 1 6 2 9a504.3 504.3 0 0 0 5.7 18.1 2 2 0 0 1-1.9 2l-3.4.2a3.5 3.5 0 0 0-3.1 3.6c0 3.1.9 6.2 2.4 9.4 3.7 7.6 7.7 14.3 12 20.1 1.6 2.2 1.2 2.6-1.1 1.1L154 189a1.6 1.6 0 0 0-2.6 1.6 37.7 37.7 0 0 0 10.5 18.1c4.6 4.4 7 9.2 5.6 15.4a1 1 0 0 1-1.8.5 38.4 38.4 0 0 0-11.6-7.4 86.7 86.7 0 0 1-12-6c.1 0 .2-.1.2-.3l-.1-.3a89.5 89.5 0 0 1-16.1-11.7 211.7 211.7 0 0 1-27.4-30.4l.9-.6c.3-.2.6-.5.6-1 .2-1 .8-1.8 1.8-2.4.4-.2.8-.1 1.1.2l.6.6c.3.3.6.3.9 0l.2-.6c0-.2.1-.3.3-.2l3.2 2.3c.4.3.7.3 1.1.2l1.5-.7c.7-.3.7-.7 0-1.2l-.4-.4c-.6-.4-.6-.8 0-1.2l.3-.3c.3-.4.4-.7 0-1a3 3 0 0 1-.8-2.2c0-.6.3-1 .6-1.4 1.8-1.6 1.9-3.3.4-5-.4-.4-.5-.9-.5-1.4l.2-3.7c0-.3.1-.4.4-.4h.5c.2 0 .2.1.2.3l-.2 4c0 .6.2 1 .6 1.4l2 1.2a.8.8 0 0 0 1.1-.3c.6-1.3.8-2.4.4-3.4a4 4 0 0 1-.2-1.4l1-32.7c0-.5 0-1-.2-1.4-.4-.8-.4-1.6-.3-2.5 0-.3.3-.5.6-.5l.6-.1c1-.3 1-.4 0-.4h-.6c-.3.1-.4 0-.4-.3l1.4-6.4V104c-.4-3.2.7-5.9 3.4-8 .4-.3.4-.7 0-1a123 123 0 0 0-10.4-6.4c-11.7-6.6-21-11.6-28-15a.7.7 0 0 1-.1-1.2l.5-.3c.6-.5 1.5-.5 2.3-.2 3.6 1.7 5.4 1.7 5.4 0Z" fill="#daad90"/><path d="m214.3 85.3 19 12.8a13.8 13.8 0 0 0-4.7-.2.5.5 0 0 1-.3-.3c0-.2-.2-.3-.4-.3-3.2-.2-5.7 0-7.5.4-1 .3-2 .9-3.1 1.8-1 .9-2 1.4-3 1.8a48.4 48.4 0 0 0-12.8 6.1l-9 6c-.5.3-1 .7-1.2 1.2-.5.8-1.2 1.3-2 1.5-.6.2-1 .5-1.3 1a8.7 8.7 0 0 0-.7 7.6 22 22 0 0 1 1.3 6c.1 2.2-.7 4-2.5 5.3a2 2 0 0 0-.8 1.1 7.6 7.6 0 0 1-1.5 3 3 3 0 0 0-.5 1.4c0 .8-.6 1.3-1.5 1.4-.3 0-.4.3-.4.6.3 1.6 0 2.6-.7 2.9L173 136c.3-.2.6-.2.9-.2l.2-.2v-.5l-.1-.1c-1-.3-1.4-1-1-2.2v-.3l-.5-.2c-.3 0-.3-.2-.1-.5 2.5-2.4 4.3-5 5.4-7.6.4-.8.3-1.7-.1-2.6-.2-.4-.3-1-.3-1.4a9.4 9.4 0 0 0-4.6-9.6c-.7-1.2-1-2.2-.5-2.9.1-.3.2-.6.1-.9-.1-.8 0-1.6.3-2.5.1-.5.4-.8.8-1 .7-.4 1.3-1.1 1.6-2 .2-.7.6-1.2 1-1.6a50 50 0 0 1 13.6-8.3c1.5-.6 3-1.3 4.4-2.2l6.6-3.9 1-.2 12.7.1Z" fill="#7c3926"/><path d="m411.6 100.5 2.9 1.4 9.1 4.2 8.3 3.8c0 .8.3 1.4 1 1.8a294.6 294.6 0 0 1 35.6 27l13.8 13.6c3.4 4.6 7.3 9.4 11.4 14.5 2.8 3.4 5.2 6.7 7.2 9.9l6.4 10.4c4.3 7.8 7.6 15.7 10 24 0 .4.3.6.7.7h.5c.7.9 1.3 1.5 2 1.8 7.1 3.5 13.3 7.3 18.7 11.4 6.8 5.3 13.6 11.7 20.5 19.3-1.7-1-3.2-2.3-4.5-3.9-.4-.4-.8-.6-1.4-.6H550v.6c-.1.2 0 .4.3.4.5 0 .9.2 1.1.5.2.3.2.7 0 1.1a8.7 8.7 0 0 1-2 4.4 86.2 86.2 0 0 0-6.5 7.2 12 12 0 0 1-2.3 2.3c-1.1.8-2 1.6-2.6 2.4-1 1.2-2 2.1-3.4 2.7-1.2.6-2.5 1-3.9 1.3-.6.1-1 .5-1.1 1.1-.5 1.8-1.3 3.4-2.3 5-.4.5-.7.4-.8-.3a2 2 0 0 0-1.1-1.5c-.5-.1-.7-.5-.7-1v-1.5c.1-.5 0-1-.3-1.5-1.2-1.8-1.4-3.7-3-5.4a77 77 0 0 1-4-5.2 2 2 0 0 0-1.3-.8l-5.6-.8a16 16 0 0 0-14.7 5.8c-10 11.8-10.3 32.1 2 42.7a13 13 0 0 0-5.8-2.6 2 2 0 0 1-1.3-.6 4 4 0 0 0-3.2-1.1c-.5 0-1-.1-1.5-.4a30 30 0 0 1-7.4-6.1c-.4-.5-.6-.4-.7.2l-.2 4c0 .4-.2.5-.5.2a4 4 0 0 1-1.2-2.2c-.3-1.9-1.3-3.1-3.1-3.6-.4-.1-.5-.4-.4-.8.1-.5 0-1-.4-1.5l-.4.2c-.3.1-.5 0-.5-.2-.2-1.8-1.4-3-3.6-3.3-.5 0-.8-.3-.8-.8a12 12 0 0 1 0-4.3c.2-.5.2-1 0-1.4a5 5 0 0 1-.5-2.4c0-.2 0-.3-.3-.3h-.5l-.1.1-.3 30-.1-9.4a1121 1121 0 0 1 2.4-75.7c.2-16.6-1-34-3.3-52.1-.4-3.5-1.4-6.3-3-8.5-2-3-4.3-5.3-6.7-7a12.2 12.2 0 0 1-3.4-3.7c-.4-.6-.9-.8-1.5-.7a4 4 0 0 1-3.7-1.6 2 2 0 0 0-1.4-.6 592.2 592.2 0 0 0-12.8.2l-.4-.4a1 1 0 0 0-1.1-.2c-2 .7-4 .6-5.7-.2a2 2 0 0 1-1-1c-.3-1.1-1-1.5-2.1-1.2a6 6 0 0 1-3.2.2c-.2 0-.3 0-.2.2.2.3 0 .5-.3.5a20 20 0 0 1-7.7-1.3c-.6-.2-.7 0-.5.6.2.5 0 1-.3 1.5-.3.4-.8.5-1.2.2a3.6 3.6 0 0 0-3.8 0c0 .1-.1.2 0 .2v.2c0 .1 0 .2-.2.3-1.4.4-2.5.2-3.4-.7-.2-.2-.5-.4-.8-.4-1.7 0-2.9.6-3.5 2-.1.2-.4.4-.7.5h-.5c-.6-.2-.7-.5-.2-.9.2-.1.3-.3.3-.5 0-.3-.1-.6-.4-.7a5 5 0 0 0-4.7.1c-.4.2-.8.2-1.2 0a1 1 0 0 0-.9 0c-.3.2-.6.5-.7.8 0 .3-.2.5-.4.7-.4.4-.7.3-1.1 0l-.6-.7c-.3-.5-.6-.4-.7.1v.7l.1.4c.1.2.3.3.5.3.3 0 .4.3.5.5 0 .3 0 .6-.2.8-.2.2-.3.3-.6.3-.7 0-1.2.3-1.5.9-.2.3-.4.3-.5 0l-.3-.7c-.1-.4-.4-.6-.8-.8l-1.2-.3a.9.9 0 0 1-.7-.9 2 2 0 0 0-.8-1.6c-.4-.5-.8-.4-1 .2-.3.8-.1 1.6.6 2.4l2.4 3-.1.4-.4.3c-.2.1-.4 0-.6-.2a4.6 4.6 0 0 0-2-1.7 62.4 62.4 0 0 0-23.9-19c-1.8-.8-3.6-1.3-5.4-1.5-.6 0-.7.2-.5.7.6 1 1.4 1.9 2.4 2.6l.1 1.9c0 .5-.2.7-.7.6a1 1 0 0 1-.7-.3c-.5-.2-1-.2-1.4 0-1 .7-1.5 1.7-1.4 3 0 .5 0 1-.5 1.3-.3.2-.2.4.2.5l1.7.3.6.3.5.2c.5 0 .7.3.5.8-.4.7-.4 1.5 0 2.3a2.4 2.4 0 0 1-1.4 3.3l-3 1c-.6.2-.9 0-1-.6-.3-2-1.5-2.8-3.7-2.7a56.5 56.5 0 0 0-55.8-21.4c-2 .3-3.5.8-4.8 1.5-1.6 1-1.5 1.3.4 1.3 6.2-.3 12.6.5 19.3 2.1 11.2 2.8 20 6.6 26.6 11.3l10 7.3c2 2.3 4.6 4.2 7.5 5.7.1 0 .2.1 0 .2l-.4.3c-.4.1-.6.4-.6.8 0 .6.4 1 1 1.2.3.1.5.3.5.5s-.1.3-.4.1a11 11 0 0 0-3.8-1.6c-.4 0-.5-.2-.5-.6v-.5c0-.4-.1-.7-.5-1l-4.4-3.3c-.4-.3-.9-.5-1.3-.5a3.5 3.5 0 0 1-2.7-1.8 3.9 3.9 0 0 0-2.3-1.8c-.8-.3-1.7-.3-2.5-.3-.6.1-.8.4-.7 1a3 3 0 0 0 1.9 2v.2l-.4.1c-.1 0-.1.1 0 .2a4 4 0 0 0 2.6 2.6l.1.1v.1c0 .1 0 .1-.1 0-.7-.4-1.5-.6-2.3-.4-.5 0-1 0-1.4-.4a6.1 6.1 0 0 0-5.5-1l-8.5-2.7c-2.4-.8-5-1-7.5-.5-.5.1-.8.4-1 .9l-.6 1.2c-.2.4-.5.6-1 .5-1-.1-1.8.2-2.3 1a2 2 0 0 0-.2 1.8c.2.7.2 1.4-.1 2-.4.7-.3 1.3.3 1.8.8.6 1.3 1.3 1.6 2.3.1.5.4.9.8 1.3 3.6 3.7 7 7.3 10.3 11.8 5.3 7.4 11.2 14.8 15.6 22.5a474.9 474.9 0 0 1 26.3 53.5l7.2 17.5a41.3 41.3 0 0 0-5.6-2.4 66 66 0 0 1-6.2-2c-1.8-.8-3.5-.9-5.3-1.2a2 2 0 0 1-1.3-.6c-.7-.7-1.4-1-2-.7-.7.2-1.1 0-1.4-.5-.4-.7-1-1-2-1-.5 0-1 0-1.5-.2l-11.8-4.1-4.8-2.3c-1.6-.7-3.3-1.2-5.1-1.3a3 3 0 0 1-1.5-.5c-2-1.4-4-1.5-6.2-.3-.4.2-.8.2-1.2-.2-1-.9-2-1-3.2-.4-.4.2-1 .3-1.4.3l-3.5-.2a2 2 0 0 1-1.3-.4c-1.9-1.6-4-1.5-6.2.1a.9.9 0 0 1-1.4-.4c-.1-.4-.3-.4-.6-.1-.5.5-1 .5-1.5 0l-.4-.7c-.4-.4-.8-.6-1.3-.6l-5-.3c-.5 0-.8-.2-1-.4l-.4-.5c-.4-.4-.8-.4-1.2 0l-.6.5c-.3.3-.5.2-.8 0-1.4-1.7-3-2-5-.8-.4.3-.8.4-1.4.3a3 3 0 0 1-2.1-2c-.2-.5-.6-.6-1 0-.6.8-1.4 1-2.2.2-.5-.4-1-.6-1.7-.7a4 4 0 0 0-2.9.4c-.5.4-1 .3-1.4-.2l-.8-.9a.5.5 0 0 0-.8 0l-.3.7c0 .3-.3.5-.6.7-.6.2-1.1.1-1.6-.2-.7-.4-.8-.9-.2-1.4l.5-.5c.5-.4.4-.6-.2-.6a1 1 0 0 0-.7.3c-.4.3-.8.3-1-.2a18 18 0 0 0-7-6.6 3 3 0 0 0-1.6-.4c-.6 0-1-.1-1.3-.6a2 2 0 0 0-.8-.6c-1.6-.8-2.8-1.9-3.8-3.2-.5-.6-1-.7-1.6-.3-.4.2-.7.1-1-.3-.3-.9-.5-1.8-.5-2.8 0-.7-.2-1-.9-.8h-.3a2 2 0 0 1-1.5-.6 85.4 85.4 0 0 1-8.9-12.4 27.4 27.4 0 0 0-6.3-7.2c-.4-.4-.7-.8-.8-1.3a6 6 0 0 0-2.5-3.6c-.5-.4-.6-.8-.2-1.3l1-.7c.4-.1.5-.3.3-.6-.2-.2-.3-.3-.6-.2a.7.7 0 0 1-.8-.5l-.1-.8c-.1-.6 0-.8.6-.6.3 0 .6.3.8.6.2.4.4.3.6 0 .9-2 1.3-4.3 1.2-6.6 3.3-3.4 8.3-10 15-19.5 8.7-12.2 15-22.2 18.8-29.8a67 67 0 0 0 6.2-17.3c3.6-4.5 8.9-8 15.9-10.4a116 116 0 0 1 28.6-6.5c3.4.3 6.9.5 10.3.6 7.7.2 14.5 1.6 21.8 2.8 4.9.9 12.5 3.1 22.8 6.8 5.2 4 9.5 7 13 8.8a164 164 0 0 0 15 6.7v.4c0 .1.1.2.3.2 1.9.3 3.7.4 5.6.3.7 0 1.2-.2 1.6-.6.6-.6.8-1.2.7-1.8l.5-.1c.3 0 .5-.3.6-.6a102 102 0 0 1 5.7-24.4c.2-.5.4-1.8.6-3.7l13.1 4.5Z" fill="#f87d2f"/><path d="m233.3 98.1 13.8 10.9c-4.6.3-7.6.7-8.8 1.3-5.3 2.3-10.6 4.5-16 6.6-.3.1-.4.3-.3.6v.5a65.4 65.4 0 0 0-18.6 10.4c0-.1-.2-.3-.5-.4a.8.8 0 0 0-1 .5l-2 5.4c-.2.5-.2 1-.2 1.5.2 1.7.2 3.5 0 5.2a10 10 0 0 1-1.9 4.8c-3 4.3-6.4 7.8-10.2 10.4l-6.9-9.4c.8-.3 1-1.3.7-3 0-.2.1-.5.4-.5 1-.1 1.4-.6 1.5-1.4 0-.5.2-1 .5-1.3.7-1 1.2-2 1.5-3 .1-.6.4-1 .8-1.2a5.8 5.8 0 0 0 2.5-5.3c-.2-2-.6-4-1.3-6-1-2.5-.7-5 .7-7.5.3-.6.7-1 1.3-1 .8-.3 1.5-.8 2-1.6.3-.5.7-.9 1.1-1.2 3.2-1.9 6.2-3.9 9.1-6 3.2-2.3 7.5-4.3 12.7-6.1 1-.4 2-1 3-1.8 1.2-1 2.3-1.5 3.2-1.8a24 24 0 0 1 7.5-.4c.2 0 .3 0 .4.3l.3.3h.3c1.1-.2 2.6-.1 4.4.2Z" fill="#954729"/><path d="m159 99 13.7 11.7c3.4 2.2 5 5.3 4.6 9.6 0 .5 0 1 .3 1.4.4.9.5 1.8 0 2.6-1 2.6-2.8 5.2-5.3 7.6-.2.3-.2.4.1.5l.5.2v.3c-.4 1.2 0 2 1 2.2l.1.1v.5l-.2.2c-.3 0-.6 0-1 .2l-4.2-5.3-9.7-10.6c-1-3.2-1-5.5.3-6.7l.8-1.3 2.7-5.7c.2-.5.2-.9 0-1.3-.6-2-1.9-4-3.7-6.1Z" fill="#582a24"/><path d="m247 109 3 2.1.2.3a4.1 4.1 0 0 1-2.6 2.1 66.9 66.9 0 0 0-6.9 2.1c-.5.2-1 .4-1.3.8a7.5 7.5 0 0 1-5.5 2 1 1 0 0 0-1 .6c0 .2-.3.3-.5.4l-8.7 4.3c-1.4.7-2.7 1.5-4.1 2.4-2.9 1.9-6.4 3.2-8.7 5a27.4 27.4 0 0 0-3.8 3.7c-2 2.3-2.7 5-2 8.2.1.5 0 1-.2 1.5l-3.1 7.2a3 3 0 0 1-1.1 1.3c-1.6 1.1-2 3-4.2 3.4-1 .2-1.8 1.2-1.7 2.3 0 1.2-.5 1.9-1.6 2-.1 0-.1 0 0 .1l.3.4c.2.3 0 .5-.3.5l-1.3.2-4.3-6.1a39 39 0 0 0 10.2-10.4 10 10 0 0 0 1.9-4.8c.2-1.7.2-3.5 0-5.2 0-.5 0-1 .2-1.5l2-5.4c.1-.4.6-.6 1-.5.3.1.5.3.5.4 0 .2 0 .3.1.1A65.4 65.4 0 0 1 222 118v-.5c0-.3.1-.5.4-.6 5.4-2 10.7-4.3 16-6.6 1.2-.6 4.2-1 8.8-1.3Z" fill="#a84e2a"/><path d="m250.2 111.4 5.3 6a67 67 0 0 1-6.2 17.4c-1 0-1.8.5-2.1 1.4-.2.4-.5.5-1 .3s-1-.1-1.4.4c-.3.2-.6.3-1 .3-.6-.2-1.2 0-1.6.5a6 6 0 0 1-3 2c-.4 0-.7 0-1-.2-.4-.2-.9-.2-1.3 0l-10.8 4.3a4 4 0 0 0-1.1.8c-.5.4-1 .6-1.7.7-.6 0-1 .2-1.5.6a18 18 0 0 0-4.7 6.5c-.2.5-.3 1-.2 1.5.6 3.4.6 6.4 0 9a7.2 7.2 0 0 1-3.5 4.8c-1 .5-1.8 1.1-2.6 1.7-.8.6-1.8 1-2.7 1.4-.6.1-1 .4-1.5.7l-2.7 2.6c-.4.3-.6.8-.5 1.3.3 1.4.2 2.7 0 3.9l-11.5-17.4 1.3-.2c.4 0 .5-.2.3-.5l-.3-.4c-.1 0-.1-.1 0-.1 1.1-.2 1.7-.8 1.6-2 0-1.1.6-2 1.7-2.3 2.2-.5 2.6-2.3 4.2-3.4a3 3 0 0 0 1-1.3l3.2-7.2c.3-.5.3-1 .2-1.5-.7-3.2 0-5.9 2-8.2 1-1.3 2.3-2.5 3.8-3.7 2.3-1.8 5.8-3.1 8.7-5l4-2.4a408.4 408.4 0 0 1 9.3-4.7 1 1 0 0 1 1-.5c2 0 3.9-.6 5.5-2.1.4-.4.8-.6 1.4-.8a66.9 66.9 0 0 1 6.8-2c1-.3 2-1 2.6-2.2Z" fill="#bd552a"/><path d="m52 129.3 8 16.2-23.7-11.7A218 218 0 0 0-.4 122.5l-24.3-4.3a211 211 0 0 0-88.2 8.5c-2.3.8-4.4.7-6.5-.2l-1.9-1.4c37.5-13.3 76-17.2 115.5-11.7 18.1 2.5 35.6 7.2 52.5 14l2.4 1.4c1.6 1.2 2.6 1.3 3 .5Z" fill="#c3b2b5"/><path d="m-24.7 118.2 24.3 4.3c-.1 2 .8 2.8 2.8 2.5.6-.1 1 0 1.1.5.3.9 0 1.2-1 1l-3-.6c-.3 0-.4-.2-.4-.5v-1a1 1 0 0 0-.4-.8.8.8 0 0 0-.6-.2c-.4 0-.6.2-.5.6 0 .8-.2 1.4-1 1.8 0 .1-.2.1-.4 0l-.4-.6a1 1 0 0 0-.9-.6c-.3 0-.7 0-1 .3-.3.3-.8.4-1.2.3a4 4 0 0 0-2.4.2c-.5.1-.8 0-1-.5-.3-.9-.3-1.7 0-2.7l-.5-.2c-.2 0-.3 0-.4.2 0 .9-.4 1.6-.8 2.2-.3.5-.7.7-1.2.8a15 15 0 0 0-4 1.5c-.9.7-1 1.8-2.3 2a2 2 0 0 0-1.2.9 3 3 0 0 0-.5 1.5c0 .6.2.7.7.3.4-.4.8-.6 1.2-.7.2 0 .3.2.3.4 0 .1-.1.3-.3.3-1 .5-1.5 1.3-1.4 2.5 0 .5-.2.7-.6.8-.7.2-.9.6-.7 1.3 0 .2 0 .4-.2.4-.8 0-1.2.4-1.1 1.1 0 .5-.1 1-.4 1.4-1 1.3-2 2.4-3.3 3.3-.3.2-.4.4-.5.7l-.1.9c0 .5-.3.9-.7 1.1-1.5.9-3 1.5-4.5 2l-.4.4-.2.4c-.1.4-.5.6-1 .5-2.8-.4-4.4 0-4.5 1.6l-16.3-3-12-1.6c2.4-1.3 5.1-2 8.2-2.2.5 0 .9-.2 1.1-.7l1.4-2.2c.2-.4.6-.7 1-.7h.6c.3 0 .5-.2.6-.5.2-1 .7-1.8 1.4-2.5.4-.3.6-.7.5-1.2-.2-1.3.1-2.3 1-3.3.4-.3.5-.7.3-1.1-.4-.8-.4-1.5 0-2.3.4-.4.5-.9.5-1.4.1-1.4.8-2.5 1.9-3.3.3-.2.6-.5.7-.9.3-.6.8-.8 1.5-.7.5 0 1 0 1.3-.4 1-1 2-2 2.5-3.3a1 1 0 0 1 1-.7l17.4.4Z" fill="#77525d"/><path d="m168.6 130.8 4.3 5.3 7.8 10.3 7 9.4 4.2 6.1 11.5 17.4 6 10.3c.2 1-.1 1.7-.8 2.5a294.5 294.5 0 0 1-45.1 39.7c-1 .7-2.4 1-4.1 1a7 7 0 0 1-3.8-1.2c-9.8-6.1-19-14.8-27-23.1l-5-6.1c-2.5-3-5-6-7.3-9-.6-.8-.6-1.2-.2-1.2a60.5 60.5 0 0 0 26 19c3.7 2.2 7.7 4.1 12 5.9 4.2 1.7 8.1 4.2 11.6 7.4a1 1 0 0 0 1.8-.5c1.4-6.2-1-11-5.5-15.4a37.7 37.7 0 0 1-10.6-18.1v-.3a1.7 1.7 0 0 1 2.6-1.3c2.9 2.1 5 3.6 6.5 4.5 2.3 1.5 2.7 1.1 1-1-4.2-5.9-8.2-12.6-12-20.2a23.3 23.3 0 0 1-2.3-9.4 3.5 3.5 0 0 1 3.1-3.6l3.4-.2a2 2 0 0 0 1.8-2.7c-2-6-4-11.8-5.7-17.5a58.5 58.5 0 0 1-2-9.4 2.4 2.4 0 0 1 2.8-2.2c4.6.7 8.6 2.8 12 6.2.4.4.8.4 1.3.1a2 2 0 0 0 1.1-1.5 1 1 0 0 1 1-.8l2.6-.4Z" fill="#f3e4d4"/><path d="M-.4 122.5a218 218 0 0 1 36.7 11.3c-.5 0-.8.3-.8.8 0 .3.2.5.4.6l5.7 3c.4.3.8.3 1.2 0 .4 0 .6 0 .7.4l.5.5 12.4 6.3a.6.6 0 0 1-.1 1.1c-.6.2-1.2.1-2-.2-.5-.2-1 0-1.2.5-.5 1-1.2 1.1-2.2.5-1.5-.9-2-2-1.8-3.1.1-.4 0-.7-.5-.8-.8-.3-1.4 0-1.7.6l-.4.4a1.1 1.1 0 0 1-1.8-.7c-.1-1-.5-1.3-1.2-1.1l-.4.1a1.2 1.2 0 0 0 0 2c1.2.9 1.3 1.8.5 2.7a11 11 0 0 0-3.2-3.9c-.5-.4-.8-.3-1 .3v1c0 .4-.2.6-.5.7h-.4c-.5 0-.7-.2-.8-.6-.2-1.7-1-3-2.4-4-.2-.1-.3-.1-.4 0l-.2.5c0 .3.1.5.4.7 1 .7 1.4 1.6 1 2.8-.2.2-.4.4-.7.4l-.5-.1c-.5 0-.7-.3-.6-.9.2-.8 0-1.4-.8-1.8a1 1 0 0 1-.6-1c0-.3-.2-.5-.6-.6-.6 0-1.1 0-1.5.4-.6.3-.5.5.1.6.7 0 1.3.3 1.8.9.4.6.5 1.2.3 1.7-.3.6-.7.7-1.2.3l-1-1c-.2-.4-.4-.4-.6-.2-.2.1-.2.2-.3.4 0 .2 0 .5.2.7l.7.7c.4.2.4.6.2 1l-.6.3c-.3 0-.5 0-.7-.3-.1-.3-.2-.6-.1-.9.1-.7-.1-.8-.7-.5l-.6.4a.7.7 0 0 0 .5 1.3c.6-.1.9.1.6.8-.2.6 0 1 .7 1 .3 0 .5 0 .7.2.2.2.2.4.1.7-.2.3-.2.7-.1 1 0 .5.3.6.6.3l1.8-1.4c.7-.5 1-.3.8.5-.2.8-.6 1.4-1.3 1.7-.2 0-.3.2-.4.5l.1.7c.3.4.6.4 1 .1l1.5-1c.2-.2.4-.2.5 0l.2.4c.2.3.1.4-.1.6a11 11 0 0 0-2.6 2.3c-.5.5-.4.9.3 1 .4.2.5.4.5.8 0 .5.3 1 .7 1.2.6.5 1.1 1.1 1.6 2 .2.5.2 1-.2 1.4-.6.6-.6 1.2 0 1.9.2.3.2.5-.3.5h-1.1c-.6 0-.9.2-1 .7l-.2.8-.2.3h-.5c-.2 0-.3-.2-.3-.5.2-.8.1-1.5-.3-2-.3-.5-.7-.6-1.2-.3a5 5 0 0 0-1.8 2.6c-.2.5-.5.7-1 .8h-4.4l-.3.1c0 .2 0 .3.2.3 1.3.2 2.3.8 3.2 1.7-2.4-1.3-3.9-1.5-4.5-.5a269 269 0 0 0-61.4-18.1c.1-1.5 1.7-2 4.6-1.6.5.1.8 0 1-.5v-.4l.5-.4c1.5-.5 3-1.1 4.5-2 .4-.2.6-.6.7-1.1l.1-.9c0-.3.2-.5.5-.7 1.2-1 2.3-2 3.3-3.3.3-.4.4-.9.4-1.4 0-.7.3-1 1-1.1.3 0 .4-.2.3-.4-.2-.7 0-1.1.7-1.3.4 0 .6-.3.6-.8 0-1.2.4-2 1.4-2.5.2 0 .3-.2.3-.3 0-.2 0-.3-.3-.4-.4.1-.8.3-1.2.7-.5.4-.7.3-.7-.3s.2-1 .5-1.5a2 2 0 0 1 1.2-.8c1.2-.3 1.4-1.4 2.4-2 1.2-.8 2.5-1.3 3.9-1.6.5 0 1-.3 1.2-.8.4-.6.7-1.3.8-2.2 0-.2.2-.3.4-.2l.5.1v.1c-.3 1-.3 1.8 0 2.7.2.5.5.6 1 .5a4 4 0 0 1 2.4-.2c.4.1.9 0 1.2-.3.3-.3.7-.4 1-.3.5 0 .8.2 1 .6l.3.6h.5c.7-.4 1-1 .9-1.8 0-.4.1-.6.5-.6.2 0 .5 0 .6.2.3.2.4.4.4.8v1c0 .3.1.4.4.5l3 .6c1 .2 1.3-.1 1-1-.1-.4-.5-.6-1-.5-2 .3-3-.6-3-2.5Z" fill="#714a55"/><path d="M249.3 134.8c-3.8 7.6-10 17.6-18.7 29.8-6.8 9.6-11.8 16-15.1 19.5a23 23 0 0 1-6 5.5l-6.1-10.3c.2-1.2.3-2.5 0-3.9 0-.5 0-1 .5-1.3l2.7-2.6c.4-.3 1-.6 1.5-.7 1-.3 1.9-.8 2.7-1.4a28 28 0 0 1 2.6-1.7 7 7 0 0 0 3.5-4.7c.6-2.7.6-5.7 0-9-.1-.6 0-1.1.2-1.6a18 18 0 0 1 4.7-6.5c.4-.4 1-.6 1.5-.6.7 0 1.2-.3 1.7-.7a4 4 0 0 1 1.1-.8l10.8-4.3c.4-.2.9-.2 1.3 0 .3.2.6.2 1 .1a6 6 0 0 0 3-1.9c.4-.5 1-.7 1.7-.5.3 0 .6 0 .9-.3.4-.5.9-.6 1.5-.4.4.2.7.1.9-.3.3-1 1-1.4 2.1-1.4Z" fill="#d35c2a"/><path d="M36.3 133.8 60 145.5l4 7.7c-1.2.7-2.3.4-3.3-.8-.4-.4-.4-.8 0-1.2.2-.3.3-.6.2-.8-.2-.7-.5-.7-.9-.3l-2.5 2.6-3.5 3c-.2.2-.5.2-.7 0l-.3-.6c-.1-.5-.4-.7-.9-.7-.4 0-.8.4-1 1 0 .3-.3.4-.7.4a1 1 0 0 1-.5-.4v-.9c0-.4-.2-.6-.5-.6l-.5.1c-.2.1-.3 0-.4-.1a8.1 8.1 0 0 0-2.8-3.4l-2-3c.7-1 .6-2-.6-2.7l-.3-.3c-.4-.6-.2-1.4.3-1.8l.4-.1c.7-.2 1 .2 1.2 1.1 0 .2.1.4.3.5.3.5 1 .6 1.5.2.2 0 .3-.2.4-.4.3-.7.9-.9 1.7-.6.4.1.6.4.5.8-.2 1.2.3 2.2 1.8 3.1 1 .6 1.7.4 2.2-.5.3-.6.7-.7 1.2-.5.8.3 1.4.4 2 .2a.6.6 0 0 0 0-1.1L44 139a1 1 0 0 1-.5-.5c-.1-.3-.3-.5-.7-.3-.4.2-.8.2-1.2 0l-5.7-3a.7.7 0 0 1-.4-.7c0-.5.3-.7.8-.8Z" fill="#624949"/><path d="m43.6 147.4 2 3a2 2 0 0 0-.2 1.4c0 .2.1.3.3.3h.5c.4 0 .6.3.6.7 0 .4 0 .7-.3.9l-3 2a.7.7 0 0 0 0 1.2c.9.7 1.5.2 1.8-1.3h.8c.5.2.7.4.6 1v.4c0 .2 0 .3.2.3h.5c.3 0 .5 0 .6-.4.1-.4.3-.7.6-.9.5-.3.8-.2 1 .3a6.2 6.2 0 0 0 3.3 2.9v.5c0 .3.2.6.5.9l2.2 2c1-.3 1.8-1 2.5-1.8l.4-.2c.2 0 .3 0 .5.2.4.2.4.5 0 .9-1 .8-2 1.8-2.8 2.8-.7.8-.6 1 .3.5a9.5 9.5 0 0 0 3.8-3.4c0-.2 0-.3-.2-.4H60c-.6-.3-.6-.4 0-.3.6 0 .9-.2.9-.8 0-.4.2-.6.6-.7.7-.1 1-.5.7-1.3 0-.1 0-.2-.2-.2l-.6-.1c-.2-.2-.2-.3.1-.2h.7c.4-.1.5-.3.5-.7-.2-1.2-.8-2-2-2.4a2 2 0 0 1-1-.9c-.5-.7-1-.9-1.7-.6-.2 0-.4-.2-.5-.3l2.5-2.6c.4-.4.7-.4.9.3 0 .2 0 .5-.3.8-.3.4-.3.8 0 1.2 1 1.2 2.2 1.5 3.4.8l6.6 12c-.5 1.6-1.3 1.5-2.2-.2-.2-.4-.5-.5-.9-.3l-.3.3c-.4.6-.3.9.5.8.5-.1.8.2 1 1v.1a.8.8 0 0 1-1 .8c-1-.2-1.5-.6-1.6-1.3 0-.5-.3-.7-.8-.5a17 17 0 0 0-8.2 6.7v.2l.4.3h.3l5-4.5h.3l.3.4v.5l-6.4 6.7c-.3.3-.7.5-1.2.5-.4 0-.7.2-.9.6 0 .2-.2.4-.5.5-.3.2-.5.1-.7-.1a.7.7 0 0 1-.1-.7l.4-1c.2-.3.1-.5-.2-.6a2 2 0 0 1-.5-.2.6.6 0 0 0-1 .4c0 .5-.2 1-.5 1.5-.3.7-.8.7-1.3.2a2 2 0 0 1-.3-1c0-.6-.2-.9-.7-1-.3-.1-.6-.2-1-.1-.6 0-1 .3-1 .9-.1.4-.3.6-.7.8-.5.3-1 .2-1.5-.1-.7-.5-1.5-.8-2.3-1-2.1-.5-4.3-1.5-6.6-3-.5-.3-1-.5-1.7-.5-.6 0-1-.3-1.4-.8-.3-.4-.6-.7-1.1-.8-2.1-.3-4-1-5.6-2.3a6 6 0 0 0-3.2-1.7c-.1 0-.2 0-.2-.3 0-.1.1-.2.3-.2 1.4.2 3 .3 4.4 0 .5 0 .8-.2 1-.7a5 5 0 0 1 1.8-2.6c.5-.3.9-.2 1.2.2.4.6.5 1.3.3 2 0 .4 0 .5.3.6h.5l.2-.3.2-.8c.1-.5.4-.8 1-.8l1 .1c.6 0 .6-.2.3-.5-.5-.7-.5-1.3.1-2 .4-.4.4-.8.2-1.3-.5-.9-1-1.5-1.6-2-.4-.3-.6-.7-.7-1.2 0-.4-.1-.6-.5-.7-.7-.2-.8-.6-.3-1.1a11 11 0 0 1 2.6-2.3c.2-.2.3-.3.1-.6l-.2-.3c0-.3-.3-.3-.5-.2l-1.6 1.1c-.3.3-.6.3-.9 0a.8.8 0 0 1 0-.8c0-.3.1-.4.3-.5.7-.3 1.1-.9 1.3-1.7.2-.8-.1-1-.8-.5l-1.8 1.4c-.3.3-.6.2-.6-.3-.1-.3 0-.7.1-1 .1-.3 0-.5-.1-.7a1 1 0 0 0-.7-.2c-.7 0-.9-.4-.7-1 .3-.7 0-1-.6-.8h-.2a.7.7 0 0 1-.4-1.3l.7-.4c.6-.3.8-.2.7.5l.1.9c.1.2.4.3.7.3l.6-.3c.2-.4.2-.8-.2-1l-.7-.7c-.2-.2-.3-.5-.2-.7 0-.2.1-.3.3-.4.2-.2.4-.2.6.1.3.5.6.8 1 1.1.5.4.9.3 1.2-.3.2-.5 0-1.1-.3-1.7-.5-.6-1-1-1.8-1-.6 0-.7-.2-.1-.5a2 2 0 0 1 1.5-.4c.4 0 .6.3.6.7 0 .4.2.7.6.9.8.4 1 1 .8 1.8-.1.6 0 .8.6.9h.5c.3 0 .5 0 .6-.3.5-1.2.1-2.1-1-2.8a.7.7 0 0 1-.3-.7c0-.1 0-.3.2-.5.1-.1.2-.1.4 0 1.4 1 2.2 2.3 2.4 4 0 .4.3.6.8.7h.4c.3-.2.5-.4.4-.7l.1-1c.2-.7.5-.8 1-.4a11 11 0 0 1 3.2 4Z" fill="#643b44"/><path d="M45.7 150.5c1.2.9 2.2 2 2.8 3.4 0 .2.2.2.4.1h.5c.3-.1.5 0 .5.5v.9l.5.4c.4 0 .6 0 .8-.4.1-.6.5-1 1-1 .4 0 .7.2.8.7l.3.6c.2.2.5.2.7 0l3.5-3 .5.3a9.7 9.7 0 0 1-3.1 3.2c-.4.2-.5.6-.2 1l.6.3c.5 0 .7.3.6.7 0 .5 0 .8.2 1 .1.4 0 1-.2 1.6-1 .2-1.6-.2-1.8-1.1-.1-.4-.3-.6-.7-.5H53a6.2 6.2 0 0 1-3.2-2.9c-.3-.5-.6-.6-1.1-.3-.3.2-.5.5-.6 1 0 .2-.3.4-.6.4a3 3 0 0 1-.5 0c-.2-.1-.3-.2-.2-.4v-.5c0-.5-.1-.7-.6-.8l-.8-.1c1.2 0 1.6-.7 1.2-2 .3-.1.4-.4.3-.8 0-.4-.2-.7-.6-.7h-.5c-.2 0-.3 0-.3-.3-.1-.5 0-1 .3-1.3Z" fill="#5a333b"/><path d="m-55.6 146.9 16.3 2.9A269 269 0 0 1 22 167.9a218.8 218.8 0 0 1 42.7 24.4c-.4.3-.6.6-.6.9 0 .2.1.4.5.7l4.6 3.7c-.7.3-.8 1.3-.3 3.3h-.6l-5.2-3.5a1 1 0 0 0-1.5 1 7 7 0 0 0 1.8 2.9c5.6 4.6 9 8 10.2 9.8 2.8 4.2 6.5 7.2 9.5 11.2.3.4.7.8 1.2 1 1.7.8 3.3 1.9 4.7 3.3l.5.2h.5c.4 0 .9.2 1 .6 2.8 5 6.2 9.5 10.2 13.5.4.4.8 1 1 1.6 1.2 2.3 2 2.5 2.3.5l7.6 13c0 2-1.2 2.1-3.5.7-.5-.2-.8-.7-.9-1.2-.3-1.4-1.2-2.2-2.8-2.3-.4 0-.9-.2-1.2-.6a123 123 0 0 1-11-13.1c-3.3-4.7-6.8-9-10.5-13.1l-10.6-11.7-3.9-5a17 17 0 0 0-5.1-4.6l-.3-1.2c-.1-1-.8-1.9-2-2.7l-10.6-9.4a46.9 46.9 0 0 0-5-4.7c-1-1-2-2-2.8-3.5-.8-1.4-1.7-2.6-2.8-3.7l-.8-1.1c-.4-.5-.9-.8-1.5-.8a.7.7 0 0 1-.6-.5c-.4-1-1.1-1.6-2.3-1.8-.5 0-.9-.3-1.2-.7a2 2 0 0 0-1.7-.7c-.5 0-1-.1-1.5-.4L17 167.5l-2.3-.8c-1.6 0-3-.3-4.3-1.1-1.7-1-3-1.7-3.8-2a497 497 0 0 1-13.4-4.3 116.4 116.4 0 0 0-28-6c-.2 0-.3-.1-.4-.3a2 2 0 0 0-1.1-.6c-6-1.2-12.2-2-18.4-2.3a2 2 0 0 1-1.7-1h.7c.8-.2.8-.3-.1-.3-.6 0-1-.2-1.3-.5-.6-.5-.5-.9.3-1l1.2-.4Z" fill="#f88d54"/><path d="M58 153c.7-.3 1.2-.1 1.7.6.2.4.6.7 1 1 1.2.3 1.8 1.1 2 2.3 0 .4-.1.6-.5.6a2 2 0 0 1-.7 0c-.3 0-.3.1 0 .3l.5.1c.1 0 .2 0 .2.2.3.8 0 1.2-.7 1.3-.4 0-.6.3-.6.7 0 .6-.3.9-.9.8-.6 0-.6 0 0 .2l.1.1c.2 0 .3.2.2.4a9.5 9.5 0 0 1-3.8 3.4c-1 .5-1 .3-.3-.5.9-1 1.8-2 2.8-2.8.4-.4.4-.7 0-1a.8.8 0 0 0-.5-.1c-.2 0-.3 0-.4.2-.7.9-1.5 1.5-2.5 1.7l.3-1.7a5 5 0 0 0 3-2.4c.4-.6.2-.8-.4-.7a1 1 0 0 0-1 .8c-.2.4-.5.7-.9.8h-.5c-.2-.3-.3-.6-.2-1 0-.5-.1-.7-.6-.8a1 1 0 0 1-.6-.3c-.3-.4-.2-.8.2-1a9 9 0 0 0 3-3.2Z" fill="#624949"/><path d="M-56.4 149.2c.4.5 1 .8 1.7.9a129 129 0 0 1 18.4 2.3c.4.1.8.3 1 .6l.5.4h.4c9.4.9 18.7 2.8 27.6 5.9 4.5 1.5 9 3 13.5 4.3l3.7 2c1.3.8 2.7 1.2 4.3 1.1 1.8 3.2 3.9 5 6.1 5.5.5.1 1 .3 1.4.6 1.5 1.1 3 2.1 4.6 3 .4.3.7.6 1 1.1.3.8 1 1.3 1.8 1.6.5.2.8.5 1 1l1.3 1.3a20 20 0 0 1 4.6 3c.4.4.8.6 1.3.8a6 6 0 0 1 3.5 2.3l2.6 3-14.2-8.6-18.2-8.8c-.6-.3-.8-.2-.6.4.1.5.6.9 1.3 1.1a109.9 109.9 0 0 1 7.4 3.3v.4l.5.5c4 2.3 8 4.2 12.5 5.7l8.8 5.8c-.6-.4-1.1-.6-1.5-.4l-8-4.2.5.7c-4-3.1-8.5-5.4-13.6-7a40 40 0 0 0-15.7-6 427 427 0 0 0-43.8-12c-3-1.4-6-2-9.4-2-1.7-.6-3.6-1-6-.9a9.2 9.2 0 0 0-7.6-2c-.2-.3-.5-.5-.9-.6.6-.4.7-1 .2-1.8 2.3-.3 1.2-1.2-3-2.5.5-.7.1-1.2-1.2-1.5l-.8-.6 13 .3Z" fill="#fb8733"/><path d="M46.5 153.7c.4 1.2 0 1.9-1.2 1.9-.3 1.5-.9 2-1.8 1.3a.7.7 0 0 1 0-1.2l3-2Zm9.4 7.1c.2-.7.3-1.2.2-1.5h.5c.4-.1.7-.4.9-.8a1 1 0 0 1 1-.8c.6-.1.8.1.5.7a5 5 0 0 1-3.1 2.4Zm0 0-.3 1.7-2.2-2a1 1 0 0 1-.4-.8v-.5h.4c.4 0 .6.1.7.5.2 1 .8 1.3 1.8 1Z" fill="#422a2b"/><path d="m-65.8 156.6 1.7.5a10 10 0 0 0 2.9 1.7l2.4.8c1.2.3 1.4.5.6.6l2.1 1.7c1.4 1 2.8 1.7 4.3 2.3l.1 1.3c0 .5.3 1 .8 1.3l11.7 8.8 7.3 4.4 1.2.4 1.1 1.6c.3.4.5.8.6 1.4a6 6 0 0 0 2.7 4.2c4.1 3 8.3 6 12.6 8.8l.9.7h-.5c-.2.2-.2.4 0 .6 2.7 2.6 4.7 5.4 6 8.3l12 13.7-4.4.7c-.4 0-.5.2-.4.6v.5c.1.5-.1.9-.7 1-1 .3-1.7.6-2 1a25.2 25.2 0 0 1-7 6.4A397.6 397.6 0 0 0-45.5 189c-2.5-2.4-8.5-7.7-18.1-16l-15.5-11.7v-2c0-.7.4-1.1 1-1.3a6 6 0 0 0 1.5-.5c.7-.4.8-.9.3-1.5l-.2-.5c-.1-.6.1-.8.7-.8.7.1 1.1-.1 1.2-.6 2.5-.6 4.8.3 6.7 2.5.3.4.7.4 1 .2l1.1-.2Z" fill="#665b5c"/><path d="M97.6 167.2a211.7 211.7 0 0 0 28.5 31.6 89.5 89.5 0 0 0 16.2 12c0 .2-.1.3-.3.3a60.5 60.5 0 0 1-27.1-20.7l-15.3-17.5c-.6-.6-1.1-.6-1.7 0a4.5 4.5 0 0 0-1.1 4.1l-.1 1.5c-.5 1-.7 2-.7 2.7l.2 12.2c0 .6 0 1-.3 1.5a4 4 0 0 0-.6 3c.1.5.4 1 .8 1.2 1.7 1 2.1 2.3 1.2 4.2l-6.6-8.4c-.8-1.5-1.3-3-1.5-4.4 0-.4 0-.8.4-1.1.3-.4.4-.8.4-1.3-.4-5.5-.3-11 .1-16.7.2-1.9-.9-4.2 1.1-6.2.3-.3.3-.6.1-1l-.3-.7.1-.7.4-.2c.3-.1.5 0 .7.2a9.8 9.8 0 0 0 5.4 4.4Z" fill="#6b2e22"/><path d="M-56 157.9c2.2 0 4.2.3 6 1 2.8 1.3 6 2 9.3 1.8a427 427 0 0 1 43.9 12 20 20 0 0 0 5.6 3.4c2.5.6 3.1 1.5 1.8 2.6-5-2.4-10.3-4.5-15.6-6-12-3.7-24.3-6.7-36.6-9.1l-7.6-.8a23 23 0 0 1-7.4-2c-.4-1.1-.6-2-.5-2.6l1-.3Z" fill="#bb2306"/><path d="M70.6 165.2 86 190.3c.2.3.5.5 1 .6h.4c.3 0 .5.2.4.5l-.2 2.4c0 .6.2 1.2.8 1.5.6.4.8.9.8 1.6 0 .7.3 1.3.8 1.8a7 7 0 0 0 3.1 1.8l10.8 18.5c-2.7-.7-5-2.8-6.8-6.3-.3-.5-.7-.7-1.2-.8a1 1 0 0 0-.8.2c-.5.3-.6.8-.3 1.3l4.2 6.4c.4.5.3.6-.2.2-2.5-2.1-5-4.6-7.5-7.5-.4-.5-.7-.5-1 .2v.8a171 171 0 0 0-25.4-21.2A218.8 218.8 0 0 0 22.1 168c.6-1 2.1-.8 4.5.5a12 12 0 0 0 5.6 2.3c.5.1.8.4 1.1.8.3.5.8.7 1.4.8.6 0 1.2.2 1.7.5 2.3 1.5 4.5 2.5 6.6 3 .8.2 1.6.5 2.3 1 .4.3 1 .4 1.5.1.4-.2.6-.4.7-.8 0-.6.4-.9 1-1 .4 0 .7 0 1 .2.5.1.7.4.7 1 0 .3 0 .7.3 1 .5.5 1 .5 1.3-.2l.6-1.5a.6.6 0 0 1 .9-.4l.5.2c.3 0 .4.3.2.6l-.4 1c-.2.2-.1.5 0 .7.3.2.5.3.8.1.3-.1.4-.3.5-.5.2-.4.5-.6 1-.6.4 0 .8-.2 1-.5l6.4-6.7c.2-.2.2-.4 0-.5l-.2-.3c0-.2-.2-.2-.3 0l-5 4.4h-.3l-.3-.3c-.1 0-.1-.1 0-.2a17 17 0 0 1 8.1-6.7c.5-.2.8 0 .8.5 0 .7.6 1.1 1.6 1.3a.8.8 0 0 0 1-1c-.2-.7-.5-1-1-1-.8.2-1 0-.5-.7l.3-.3c.4-.2.7-.1 1 .3.8 1.7 1.6 1.8 2.1.2Z" fill="#5a333b"/><path d="M-58.2 160.2c.6 0 1 .2 1.6.5a23 23 0 0 0 7.4 2l7.6.9a383 383 0 0 1 36.6 9c5.3 1.6 10.5 3.7 15.6 6.1l1.5 1c-.3.4-1 .5-1.8.3-.6-.2-.7 0-.4.4.5.9 1.2 1.3 2.3 1.5h.4c.3.2.4.4.4.6-.1.4.2.7.5.8 1.5.2 3 .8 4.2 1.7 1.1.8 2.4 1.5 3.7 2.1 2.2 1 4 2.2 5.8 3.9-.2.3.2 1 1.4 1.7-1.4-.9-2.7-1.5-4-1.8a3 3 0 0 1-1.2-.7 15 15 0 0 0-7-3.5L.1 179.5a57.4 57.4 0 0 0-18-5.4l-3-2.8c-.4-.4-1-.6-1.5-.6a4.8 4.8 0 0 1-3.3-1.6c-.4-.4-.9-.7-1.4-.8-3.6-.7-6-1-7-.6-.8.3-1 1.2-.5 2.6-1.6-1.3-2.8-1.7-3.5-1.2a3 3 0 0 1 0-1.9c.2-.6 0-1-.7-1.1l-7.8-1.5c-.2 0-.4 0-.5.2a1 1 0 0 0-.2.5c0 .4.2.6.6.6l2.7.2c.4 0 .6.2.6.6 0 .3 0 .5.2.6-.5 0-.8 0-1 .3-1.7-1.6-3.2-2.1-4.7-1.4l-2.9-2a21.5 21.5 0 0 1-6.4-4Z" fill="#fba450"/><path d="m14.7 166.7 2.3.8c2.1 2 4.6 3.5 7.5 4.5l1.2.7L44.3 188l-3-1a6 6 0 0 0-3.5-2.4c-.5 0-1-.3-1.3-.7a20 20 0 0 0-4.6-3 3 3 0 0 1-1.2-1.3c-.3-.5-.6-.8-1.1-1-.9-.3-1.5-.8-1.8-1.6-.3-.5-.6-.8-1-1l-4.6-3c-.4-.4-.9-.6-1.4-.7-2.2-.5-4.3-2.3-6.1-5.5Z" fill="#fd9040"/><path d="m17 167.5 12.6 6.4c.5.3 1 .4 1.5.4a2 2 0 0 1 1.7.7c.3.4.7.6 1.2.7 1.2.2 1.9.8 2.3 1.8 0 .3.3.4.6.5.6 0 1.1.3 1.5.8l.8 1c1 1.2 2 2.4 2.8 3.8.8 1.4 1.8 2.6 2.9 3.5 1.7 1.4 3.3 3 4.9 4.7l-3.1-1.4-2.4-2.5-18.6-15.2-1.2-.7c-2.9-1-5.4-2.5-7.5-4.5Z" fill="#fe9748"/><path d="M114.9 190.4c-.3-.2-.6-.2-.8 0l-.3.7c0 .1 0 .1 0 0v-.5c-.3-.3-.4-.2-.4.1l-.1.6c-.2.3-.5.4-.9.3-2.4-.7-3.9 0-4.3 2.2-.8 4-.9 9.4-.2 16.2 0 .7.3 1.4.7 2 .5.9.8 1.8 1 2.7 0 .5.3 1 .7 1.3 2.5 2.2 4.2 4.8 5.2 7.6l-18.2-20.3c.9-1.9.5-3.3-1.2-4.2a2 2 0 0 1-.8-1.2c-.2-1 0-2 .6-3 .2-.4.3-1 .3-1.5l-.2-12.2c0-.7.2-1.6.7-2.7.1-.5.2-1 0-1.5-.3-1.5.1-2.9 1.2-4.1.6-.6 1.1-.6 1.7 0l15.3 17.5Z" fill="#954729"/><path d="m-41 169.2 12.5 4.6c6 3 12.5 5 19.5 5.6l7.6 2.5c.3 0 .5.2.6.5a217.5 217.5 0 0 0 7.9 3.3c1.2.4 2.5 1.2 4 2.3 1.2.9 2.6 1.7 4 2.3l4.2 3.3-5.2-2c-.9-1.4-2.5-2.2-4.8-2.6l-1.4-.2-14-5.3-.2-.1a7 7 0 0 1 3.7.9h.1l.3-.1.2-.4-32.7-9.6c-2.2-1.8-4.5-2.5-6.9-2-.7-.1-1.4-.8-2.2-1.8.4 0 .6 0 .5-.3l2.3-.9Z" fill="#f3722f"/><path d="M-33 170.6c3 0 4.9.1 5.9.5 4.7 1.8 7.8 2.8 9.3 3 1.9 2.2 4 3 6.5 2.3h1.4c3.1 1.1 6 2.4 8.9 3.8l6.9 3.1c2.4 1 4.6 2.1 6.7 3.6 2.2 1.5 4.4 3.1 6.5 4.9l-4-1.5c-1.4-.6-2.8-1.4-4-2.3a15.5 15.5 0 0 0-4-2.3 217.5 217.5 0 0 1-7.9-3.3 1 1 0 0 0-.5-.5l-7.7-2.5-19.5-5.9a2.6 2.6 0 0 0-2-1.2 2 2 0 0 1-1.3-.6l-1.2-1.1Z" fill="#fc8a36"/><path d="M29.7 181.3c0 .5.9 1.3 2.9 2.6a68.5 68.5 0 0 1-13-6.2v-.4c0-.2 0-.3-.2-.4-3.7-1.6-6-2.6-7.2-2.9-.7-.2-1.2-.6-1.3-1-.2-.7 0-.8.6-.5l18.2 8.8Z" fill="#f3722f"/><path d="M3.1 172.7c6 1 11.2 3 15.7 6 1 1.3 2.3 2.2 3.8 2.8 1.8.8 3.2 1.4 4 2 1.8 1 3.7 1.8 5.8 2.3l-.5-.7 2.6 3.2a215 215 0 0 0-16.5-8.4c-.2-.1-.4-.1-.4.1l.1.4c.1.3 0 .4-.2.5l-1.6.2-3.8-1.4-1.5-1c1.3-1 .7-2-1.8-2.6-1.1-.3-3-1.4-5.7-3.4Z" fill="#dd5121"/><path d="M215.5 184.1c0 2.3-.3 4.5-1.2 6.5-.2.4-.4.5-.6 0l-.8-.5c-.5-.2-.7 0-.6.6v.8a.7.7 0 0 0 1 .5c.2 0 .3 0 .5.2.2.3 0 .5-.2.6-.5.2-.8.4-1 .7-.5.5-.4 1 .1 1.3 1.2.7 2 2 2.5 3.6.1.5.4 1 .8 1.3 2.6 2 4.7 4.5 6.3 7.2 2.7 4.5 5.6 8.6 8.9 12.4a2 2 0 0 0 1.8.6c.7-.1 1 .1 1 .8-.1 1 0 2 .5 2.8.2.4.5.5.9.3.6-.4 1.1-.3 1.6.3 1 1.3 2.2 2.4 3.8 3.2.3.1.6.3.8.6.3.4.7.7 1.3.6.6 0 1 .1 1.5.4a18 18 0 0 1 7 6.6c.3.5.7.5 1 .2.3-.2.5-.3.8-.3.6 0 .7.2.2.6l-.5.5c-.6.5-.5 1 .2 1.4.5.3 1 .4 1.6.2.3-.2.6-.4.6-.7l.3-.6a.5.5 0 0 1 .8 0l.8.8c.4.5.9.6 1.4.2a4 4 0 0 1 3-.4c.5 0 1 .3 1.6.7.8.7 1.6.6 2.2-.3.4-.5.8-.4 1 .2a3 3 0 0 0 2.1 1.9c.6 0 1 0 1.5-.3 1.8-1.1 3.5-1 4.9.7.3.3.5.4.8 0l.6-.4c.4-.4.8-.4 1.2 0l.3.5c.3.2.6.4 1 .4l5 .3c.6 0 1 .2 1.4.6l.4.6c.5.6 1 .6 1.5 0 .3-.2.5-.2.6.2a1 1 0 0 0 1.4.4c2.2-1.6 4.3-1.7 6.2-.1.4.2.8.4 1.3.4l3.5.2c.5 0 1 0 1.4-.3 1.2-.6 2.3-.5 3.2.4.4.4.8.4 1.2.2 2.2-1.2 4.2-1 6.2.3.5.3 1 .4 1.5.5 1.8.1 3.5.6 5 1.3l4.9 2.3 11.8 4.1c.5.2 1 .3 1.5.2 1 0 1.6.3 2 1 .3.6.7.7 1.3.5.7-.2 1.4 0 2.1.7.4.3.8.5 1.3.6 1.8.3 3.5.4 5.3 1.2a66 66 0 0 0 6.2 2c1 .2 2.8 1 5.6 2.4l6.8 16.2c6 15 12.2 29.8 18.5 44.6a238.2 238.2 0 0 0 21 39.5c-1.1-.2-1.8 0-2.1.8-.2.5-.5.6-1 .5-.8-.2-1.4-.7-2-1.3-.2-.4-.6-.5-1-.3-1 .4-2 .4-3 0-.5-.1-1 0-1.5.2-1 .5-2 .8-3.2.8a12 12 0 0 0-3.2.4c-2.8.7-5.6 1.6-8.5 2.5-2.3.7-5.8.6-10.3-.3a2 2 0 0 0-1.5.3 10.2 10.2 0 0 1-5 1.9 3 3 0 0 0-1.4.5 8.6 8.6 0 0 1-8.8.9 36.2 36.2 0 0 0 18.4-17.4c.4-.9.3-1-.4-.3a35.6 35.6 0 0 1-28.5 10.3 46 46 0 0 1-25.3-10.3c-5.9-4.8-10-9-12.6-12.8a78 78 0 0 0-4.5-6c-.4-.5-.5-.4-.4.3a71 71 0 0 0 15.3 25.3c-19.2-7.1-38.3-15.3-58-18.7-32.5-5.6-68.4-5-99.8-6.5-15.2-.8-30.8-3-46.8-6.4.8.1 1.4 0 1.8-.2a.6.6 0 0 0 0-1c-2.5-1.3-4-3.3-6.2-4.8-6.7-4.4-13.2-9-19.5-13.9-4-3-7-6.6-11.8-9a14 14 0 0 1-2.5-1.5c-.4-.4-.8-.8-1-1.2-.3-.5-.7-.9-1.2-1.1-.4-.2-.8-.4-1-.7a513 513 0 0 0-8.8-8.5 18.7 18.7 0 0 1-4-6.1 1.3 1.3 0 0 0-2.1-.4l-1.4 1.5c-6.6-9.6-14-18.8-22-27.6-1.1-3.8-2.1-6-3-7l-8.5-10.1c-.5-.7-1-1-1.5-1s-1.1.4-1.7 1L-.7 212.2c3-.5 6 1 9 4.2l2 3.8c.8 1.4 2 2.4 3.6 3 .5 0 .9.4 1.2.8.5.7 1.2 1.3 2.1 1.7.5.2.7.5.8 1 .2.4.4.7.8 1a10 10 0 0 1 5 6c.2.6.5 1 .9 1.4 4 3.8 7.8 7.2 11.5 10.3a10 10 0 0 1 2.2 2.7 15 15 0 0 0 2.3 2.7c2.2 2 3.4 3.3 3.7 3.6A457 457 0 0 0 55.9 267c1.6 1.7 3 3.6 4.3 5.7 1.7 2.8 3.1 4.7 4.4 5.8a65 65 0 0 1 7.6 7.7 1 1 0 0 0 1.7-.5v-.4h.2c1 .3 1.6 1.2 1.9 2.4.2.8.6 1.2 1.3 1.4.6 0 1-.2 1-.8v-1c.6 1.4 1.3 2.3 2.1 2.7 1.8.6 3.6.2 5.6-1.3a1.5 1.5 0 0 0 0-2.4 7 7 0 0 1-3.2-5 2 2 0 0 0-.7-1.2l-3.6-3c-.4-.4-.7-.8-.8-1.3a8 8 0 0 0-1.9-3.2 5465 5465 0 0 1-33.7-37.3 65.5 65.5 0 0 0-8.8-7.7 25.1 25.1 0 0 1-4-4 26 26 0 0 0-4.3-4c-1.9-1.4-3.8-3-5.7-4.8a197 197 0 0 0-5.6-5 58.1 58.1 0 0 1-10-7.7c-1-1-2.8-1.3-5-1l-2-1.5.1-.4c0-.2 0-.3-.3-.4-1.7-.6-2.8-1.7-3.2-3.2l12.5 5.5c.2.6.6 1 1.2 1 .5.1 1 .4 1.3.7.9 1 1.8 1.4 2.7 1.4 4.1 3 8.3 5.8 12.4 8.7 1 .7 1.4 2.3 2.5 3.1 9 6.3 17 13.5 24 21.8.3.4.6.9.7 1.4a5 5 0 0 0 1.7 2.4 41 41 0 0 1 10.2 11c.9 1.5 1.8 2.9 3 4.2.8 1 2 1.4 2.8 2.6l1.6 2.2A454 454 0 0 1 84 278.2c1.3.2 2 1.2 2 3 0 .5.4.7.9.8l3.5.3c.3 0 .5 0 .5-.4v-.5c.1-.4.3-.5.7-.4 2 .6 3.4 0 4.1-1.9.2-.4 0-.6-.4-.5-.5.1-.9.5-1.3 1l.1-.5c0-.4-.2-.7-.6-.8-.8-.2-1.4-.7-1.6-1.4L91 275c-3-5-6.2-9.6-9.6-14.1 0-.6.2-1 .3-1.2.2-.3.5-.3.9 0 1.7 1.4 2.1 3.4 3 4.7a14.2 14.2 0 0 0 5.8 4.6c.6.1 1.1-.2 1.2-.8v-.2a2 2 0 0 0-.5-1.2c-.4-.4-.8-.6-1.3-.5-.8 0-1.4 0-2-.5-.4-.3-.8-.8-1.2-1.5-.5-1.1-1.1-1.6-1.8-1.5a56.9 56.9 0 0 1 22.4-.2c1.9.4 4.3-.4 7.3-2.3 1.7.1 3-.5 4-1.8.3-.5.7-.7 1.2-.8 3-.5 4.7-1.7 5.3-3.8l5.9-4c2.2-.2 4-1 5.6-2.3.5-.4.5-1.2.1-1.7l-3.2-3.7c.3-1-.4-2-2-3.3-.8-.6-1.1-1.2-.9-1.7a6 6 0 0 0 .5-2.4c0-.3 0-.4.3-.3l.6.1c.4 0 .6-.3.6-.8 0-2.5-.7-4.8-2-7-.2-.4-.4-.9-.4-1.4-.1-1.7-.6-3.5-1.6-5.3a16 16 0 0 1-1-11.6c8 8.3 17.2 17 27 23.1 1.3.9 2.5 1.3 3.8 1.3 1.7 0 3-.4 4-1.1 16.8-12 31.8-25.2 45.2-39.7.7-.8 1-1.6.8-2.5 2-1.2 4.1-3 6-5.5Z" fill="#f3722f"/><path d="M-17.8 174.1c6.3.9 12.3 2.7 17.9 5.4L34 198.2v.6c-1.4 0-3-.6-5.2-2.1a5.6 5.6 0 0 0-4.3-1.7l-5.4-3.2c-2.1-1.8-4.3-3.4-6.5-5a38.7 38.7 0 0 0-6.7-3.5c-2.6-1-4.9-2-7-3.1a64.7 64.7 0 0 0-8.8-3.7 2 2 0 0 0-1.5 0c-2.4.5-4.5-.2-6.4-2.4Z" fill="#fd9040"/><path d="M-63.6 173a474 474 0 0 1 18 16 397.6 397.6 0 0 1 35.8 41l12.2 17 14.1 21.9c5.7 10.4 11.1 21 16.1 31.7 1.1 2.3 2.6 4 4.3 5.2 8.5 5.5 19 9.2 28 11.4l14 3c1.9.4 2.2-.1 1-1.6l-4.8-5.3-9-12.7c4.4 4.2 8.3 8.1 11.8 11.8 2.8 3 7.9 6 15.3 8.7a207.6 207.6 0 0 0 28.6 39 314 314 0 0 0 90.3 68.3c40.8 20.5 83.6 32.4 128.3 41.3a4223.8 4223.8 0 0 0 63.8 12.2l.2.3c1.4.2 2.3.6 2.8 1.3l-29.5 3A598 598 0 0 1 240 472.8l-28.9-7.4-32.1-11-1.8-.6-11.7-5-9.5-4.7-7.3-4L123 425l-7.5-5c-1.3-1.4-3-2.7-5-3.6l-15.2-12-7.1-6.4a280.2 280.2 0 0 1-39.6-44.4l-13.8-22.8-2.2-4.2-3.5-7.7-8.1-24.1 9.5 7c.4.4.6.3.4-.2a239 239 0 0 0-22.7-44 382.6 382.6 0 0 0-58-71.2L-64 174.2l.3-1.2Z" fill="#e8ccb4"/><path d="M18.8 178.8c5 1.6 9.6 3.9 13.6 7-2-.5-4-1.3-5.8-2.4-.8-.5-2.2-1.1-4-1.9a9.6 9.6 0 0 1-3.8-2.7Z" fill="#e45924"/><path d="M34.5 188.3c1.7 2.4 1.9 3.3.6 2.8l-19.2-10 1.6-.2c.3 0 .3-.2.2-.5a1 1 0 0 1 0-.4c0-.2 0-.2.3-.1a215 215 0 0 1 16.5 8.4Z" fill="#e03b1a"/><path d="m16.4 186.7 19 11.8c-.1.3-.6.2-1.4-.3L0 179.5l16.4 7.2Z" fill="#fe9748"/><path d="M12.1 179.7 16 181l19.2 10c23 15.3 42.2 35 56.7 58.5 2.3 3.7 4.2 6.1 5.5 7.3 2 1.6 4.2 2.2 6.8 1.9a81.4 81.4 0 0 1 11.2-1c1.3.5 2.7 0 4.3-1.3l6.5-2.6c-.6 2-2.4 3.3-5.3 3.8-.5 0-1 .3-1.2.8-1 1.3-2.3 2-4 1.8a46 46 0 0 1-19.1.6c-1.5-.4-2.9-1.6-4-3.7-.3-.4-.3-.8 0-1.3.4-.8.1-1.5-.7-2-.5-1.3-1.5-2-2.8-2.3-.3 0-.5-.2-.7-.4L61.8 222a.7.7 0 0 0-.5-.2c-.5 0-.7-.2-.7-.7a1 1 0 0 0-.6-1 7 7 0 0 1-2.7-1.9c-.5-.6-1.2-.9-2-.9-.9 0-1.2-.4-1.2-1.2 0-1-.3-1.6-1.1-2.1l-3.1-1.9-1.4-.5c-2-.2-3-1.2-3-3 0-.6-.4-1.1-1-1.3-2.4-.9-4.5-2.3-6.1-4.1-.4-.4-.8-.6-1.4-.7-.4 0-.7 0-.9-.3a.7.7 0 0 1-.1-.7c0-.2.2-.3.3-.5.3-.3.3-.6 0-.9a4.9 4.9 0 0 0-2.4-1.3l.1-.6c.8.5 1.3.6 1.4.3.3 1.1 1.4 1.8 3 2.2a8 8 0 0 0 3.6 2.8c.6.2.7 0 .5-.5a8 8 0 0 0-3.8-3.4c0-1.1-.3-2-1.2-2.4a27 27 0 0 1-4.8-3.4c-1-.8-1.8-1.4-2.6-1.7l-3-1.1c-1.6-1.7-3.5-3-5.7-3.9-1.3-.6-2.6-1.3-3.7-2.1a9.5 9.5 0 0 0-4.2-1.7.7.7 0 0 1-.5-.8c0-.2-.1-.4-.4-.5l-.4-.1c-1-.2-1.8-.6-2.3-1.5-.3-.4-.2-.6.4-.4.8.2 1.5.1 1.8-.3Z" fill="#f79564"/><path d="m-30.2 178.7 2.3.2 12.4 2.4c1.3.9 2.8 1.3 4.5 1.4 1 0 1.9.3 2.7.9.1 0 .1 0 0 0a1 1 0 0 0-.6 0c-.4.2-.4.4 0 .5l5.6 2.2 8 3.6 3 2.1c.6-.1 1 .2.8.9 0 .4-.3.6-.8.6h-.5l-4.6-2.2-7-3-1.2-.5-10-3.2-1.5-.7a27.9 27.9 0 0 0-10.6-2.5l-3-1-1.2-.4.1-.8c0-.3.3-.6.7-.6h1Z" fill="#bb2306"/><path d="M29.7 181.3 44 190l1.4.7c.3.7.5 1 .3 1.3-.2.1-.7 0-1.4-.5l-2.8-1.8-8.8-5.8c-2-1.3-3-2.1-2.9-2.6Z" fill="#f67733"/><path d="M-27.7 181.4a27.9 27.9 0 0 1 12 3.2l10 3.2c-.5-.2-1 0-1.4.3-.5.5-.4.8.2 1.2l5.4 2.8c.3.1.5.4.7.7l.4.8c.2.4.5.7 1 1 1 .4 2 1.1 2.8 2-2-1.3-3.9-2-5.8-2.1-.4-1.7-1.5-2.5-3.3-2.4-.6 0-.9-.2-1-.7l-.4-1c-.2-.5-.5-.5-.8 0-.5.6-.4 1.3.4 1.9.8.5 2.4 1.2 5 2.2.5 1.2 1.3 1.8 2.4 1.9.5 0 1 .1 1.4.4l7.6 4.4 5.5 4.2c-.9 0-2-.4-3.4-1-1-2.3-2.8-3.3-5.2-3.2l-12.5-5.5a7.4 7.4 0 0 0-3.8-2.3c-.6-.2-.7 0-.2.4l3.7 3.6-5.8-2.4c-6.7-4-11.4-7-14-9.4-2.3-2.2-2.6-3.6-1-4.2Z" fill="#f9833e"/><path d="M-6.2 183.5 8 188.8a12 12 0 0 0 3.3 2.7L4.7 190l-8-3.6c0-1 0-1.4-.5-1.4H-4c-1-.2-1.7-.7-2-1.4Z" fill="#dd5121"/><path d="M39.9 189.3a7.3 7.3 0 0 0 4.4 3c.2 0 .3-.1.3-.4l-.4-.4c.7.5 1.2.6 1.4.5l8.9 8.6c1.3 1.6 2.2 3.1 2.7 4.6.1.6 0 .7-.5.3a83.1 83.1 0 0 1-9.4-8.6 3 3 0 0 0-1.3-.8 16 16 0 0 1-7.7-5.7c-.8-1-2-1.7-3.8-2.1l-2.6-3.2 8 4.2Z" fill="#e45924"/><path d="m41.3 186.9 3 1 2.4 2.5.7.6c.5.7.4.9-.6.4l-1.5-.7-1.4-.7-2.6-3.1Z" fill="#f98a43"/><path d="M114.9 190.4c.5.4.9 1 1.2 1.8-.4 0-.4.4.2 1.1l7.2 9c-2.7 1.2-3.8 3.6-3.3 7.3a5 5 0 0 0 1.2 2.4c1.3 2 2.3 3.6 2.3 6.2 0 2.7.8 5.4 2.3 8 .2.4.3 1 .1 1.4l-.1.6c0 .6.2 1 .7 1.3 1.3.7 1.8 1.6 1.3 3-.1.4 0 .9.2 1.3 1 1.4 2.1 2.5 3.4 3.4-.2.5 0 1.1.9 1.7 1.6 1.3 2.3 2.4 2 3.3l-19-18.6c-1-2.8-2.7-5.4-5.2-7.6-.4-.4-.6-.8-.7-1.3-.2-1-.5-1.8-1-2.6a5 5 0 0 1-.7-2 57 57 0 0 1 .2-16.3c.4-2.2 1.9-2.9 4.3-2.2.4.1.7 0 .9-.3v-.6c0-.3.2-.4.4-.1.2.1.2.3.2.5 0 .1 0 .1-.1 0 0-.2 0-.4.3-.7.2-.2.5-.2.8 0Z" fill="#bd552a"/><path d="M16.4 186.7a15 15 0 0 1 7 3.5c.3.3.8.6 1.3.7 1.2.3 2.5 1 4 1.8 3 1.5 5.8 3.5 8.2 6l1.6 2c-1.7-.3-2.8-1-3.1-2.2l-19-11.8Z" fill="#f8994f"/><path d="M34.5 188.3c1.7.4 3 1 3.8 2.1 2.2 2.9 4.8 4.8 7.7 5.7.5.2 1 .5 1.3.9 3 3 6 6 9.4 8.5.5.4.6.3.5-.3-.5-1.5-1.4-3-2.7-4.6l8.2 4.5a17 17 0 0 1 5.1 4.5l3.9 5.1 10.6 11.7c3.7 4 7.2 8.4 10.6 13 3.4 4.8 7 9.2 11 13.2.2.4.7.6 1.1.6 1.6.1 2.5.9 2.8 2.3.1.5.4 1 .9 1.2 2.3 1.4 3.5 1.2 3.5-.7l1.9 2c-3.3 0-6.6.3-10 .8-2.6.3-4.9-.3-6.8-2a33.9 33.9 0 0 1-5.5-7.2A188.8 188.8 0 0 0 35.1 191c1.3.5 1-.4-.6-2.8Z" fill="#ee6a2f"/><path d="M39.9 189.3c.4-.2.9 0 1.5.4l2.8 1.8.4.4c0 .3 0 .4-.3.3a7.3 7.3 0 0 1-4.4-2.9Z" fill="#ee6128"/><path d="m-5.6 187.8 1.1.4-.5.3c-.4.3-.4.5 0 .7 2 .8 3.7 1.7 5 2.7.6.6 1.3 1 2.1 1.4.9.4 1.5 1.1 1.8 2 .2.6.4 1 .8 1.4l2.8 2.6a9.2 9.2 0 0 1-4.1-2.6 7 7 0 0 0-2.9-2.2c-.4-.2-.7-.5-1-.9l-.3-.8c-.2-.3-.4-.6-.7-.7l-5.4-2.8c-.6-.4-.7-.7-.2-1.2.4-.4.9-.5 1.5-.3Z" fill="#fba450"/><path d="m-4.5 188.2 7 3c-.5 1.1.5 2.5 3.2 4.2l.4.8c.2.4.4.8.8 1.1l5.8 4.5c1.9 1.5 3.9 2.8 6.1 3.8 2 1 3.7 2.3 5.3 4 1.2 1.2 2.6 2.4 4.4 3.5 3.3 2.1 6.3 5.7 8.3 7.4a1220.5 1220.5 0 0 1 43 43.4l3 3.7c.4.4.6.8.7 1.4a31.5 31.5 0 0 0 7.8 10l.4.6c.3.4.7.6 1.1.6.5 0 .9-.2 1.2-.5.4-.6.8-1 1.3-1 .4-.2.6 0 .4.4-.7 2-2 2.5-4.1 1.9-.4-.1-.6 0-.6.4v.5c-.1.3-.3.5-.6.4L87 282c-.5 0-.8-.3-.8-.8-.1-1.8-.8-2.8-2-3 0-.8 0-1.6-.5-2.2-.2-.4-.5-.7-1-.8a1 1 0 0 1-.7-.8 2 2 0 0 0-.7-1.3 40 40 0 0 1-6-7.8 15 15 0 0 0-2.5-3.1c-1-1-1.7-2.2-2-3.5 0-.6-.3-1-.6-1.5a347.7 347.7 0 0 0-19.4-20.9c-1-1-2.4-2.5-4-4.5-1.2-1.5-2.6-3-4-4.3a374.4 374.4 0 0 0-27-22.2L8.9 200c-.8-.7-1.3-1-1.4-.7l-2.8-2.6c-.4-.4-.6-.8-.8-1.3a3 3 0 0 0-1.8-2 10 10 0 0 1-2.2-1.5 15 15 0 0 0-4.9-2.7c-.4-.2-.4-.4 0-.7l.5-.3Z" fill="#f88d54"/><path d="m46.7 190.4 3.1 1.4 10.6 9.4-1.7-.6c-.7 0-.7 0-.2.5l4 2.8c-.1.3 0 .7.2 1.2l-8.2-4.5-8.9-8.6c.2-.2 0-.6-.3-1.3l1.5.7c1 .5 1.1.3.6-.4l-.7-.6Z" fill="#fb7c3b"/><path d="M7.9 188.8c.7 0 1.2 0 1.4.2a8.8 8.8 0 0 0 4.8 2.5l.6.4c.7.4.6.6-.2.5a9.3 9.3 0 0 1-3.3-.9 12 12 0 0 1-3.3-2.7Z" fill="#e45924"/><path d="M9.3 189c2.3.4 4 1.2 4.8 2.5-2-.4-3.6-1.2-4.8-2.5Z" fill="#ee6128"/><path d="M-49.8 186.4a383.1 383.1 0 0 1 58 71.1A239 239 0 0 1 31 301.6c.2.5 0 .6-.4.3l-9.5-7.1c-.4-.3-1-.1-1.6.5-.4.4-.6.8-.4 1.3l.6 2c.2.4.2.7.2 1a2 2 0 0 1-1 1.3c-.4.2-.6.6-.5 1 0 .4.2.8.5 1 .3.3.3.6.2 1l-.2.8c-.2.5-.5.6-1 .4l-1-.2c-.5 0-1-.2-1.3-.5a9.4 9.4 0 0 0-5.6-3c-.8 0-1.1.3-1 1.1.3.8 0 1.4-.5 1.8a2 2 0 0 0-.8 1.5l-.1 1c-.4.6-.6.6-.8 0l-.7-2.4c-.3-1.2-.7-1.2-1.2 0l-.5 1.4c-.2.5-.5.7-1 .4-2-1-3.2-2.6-3.6-4.6-.2-.6-.4-.6-.7-.1a8 8 0 0 1-3.6 2.8c-.5.1-.9 0-1.2-.4l-.8-1.7c-.3-.5-.6-.5-.9 0l-.4.9c-.2.3-.1.6.2.9 1 .7 1.4 1.6 1.1 2.8-.1.6 0 1 .5 1.4 1.3 1.3 1.3 2-.2 2l-9.4-16.9a297 297 0 0 0-32.1-47c-9-10.7-20.2-21.4-33.6-32.1.5-1.7-.7-3.6-3.6-5.6l-1.2-.5c-.4-.2-.7-.4-.8-.8-.2-.8 0-1 .6-.5 1.6 1 3.1 1.5 4.6 1.6.6 0 .9.3.8 1 0 .1 0 .3.2.5l.5.2h2.2c.5 0 .9.2 1.2.6l.1.7c0 .5.2 1 .5 1.3a8 8 0 0 1 1.3 2.6c.2.5.5.7 1 .6l.9-.2c.4 0 .6.1.5.6l-.1.8c-.1.5 0 .9.6 1 .2.1.5.1.8 0 .3-.1.6 0 .6.4 0 .8.5 1.2 1.4 1.2.4 0 .8.4.8.8 0 .5.2.7.6.9.4 0 .6 0 .6-.5 0-.3.2-.5.5-.6.3-.2.5 0 .6.3.2.7.6 1.2 1.3 1.5.5.2 1 .1 1.4-.2l1-.7c.5-.3 1-.3 1.3 0 .6.6 1.4.7 2.2.5.5-.1.6-.4.4-.9 0-.3-.3-.5-.6-.7-.3-.1-.4-.3-.2-.6 0-.2.2-.4.5-.4.3-.1.6 0 .8.2l.6.6c.5.2.8 0 .9-.4.2-.9.6-1.7 1-2.4s.9-.9 1.5-.3c.3.2.5.1.7-.2.2-.3.5-.4.8-.2.4.1.5.4.1.7-.9.8-1 1.7-.3 2.9.3.5.6.5.7-.2a4 4 0 0 1 1.4-2.4c.3-.4.4-.7.2-1.2l-.6-.4c-.3-.2-.3-.4-.2-.7l.5-.4c.5-.2.9 0 1 .5l.3.4c.1.3.4.4.7.1l1.7-1.5c.3-.3.3-.6-.1-.8l-.8-.7c-.3-.4-.2-.7.2-1h.9c.3.2.5.5.5.8 0 .3.2.4.4.4.3 0 .5 0 .6-.2.3-.3.3-.6 0-.9a3 3 0 0 1-.7-.6 1 1 0 0 1 .3-1.4c.8-.6 1.2-2 1.2-4 0-.2.2-.3.3-.3 1.5.1 2.7-.5 3.5-1.9.3-.4.3-1 0-1.4a2 2 0 0 0-.8-1.2c-.4-.3-.8-.3-1.2 0l-1.7 1c-.4.4-.8.3-1-.2-.4-1.1-.1-2.1.9-3 .4-.3.5-.8.4-1.3 0-.3-.2-.6-.5-.8-.2-.3-.2-.5 0-.8l.2-.6v-.1a21.7 21.7 0 0 1-5.3-8.8Z" fill="#7e706e"/><path d="m4.7 189.9 6.5 1.6c0 .4.2.8.8 1 2 1 4.2 1.9 6.3 2.8 2.2.9 4.2 2 6 3.2 4.2 2.8 8.5 5.6 12.9 8.3 4 2.5 7.4 5.9 10.3 10 .3.4.4.8.5 1.3l.2 1c0 .5.3 1 .7 1.4 1.8 1.9 3.6 3.9 5.2 5.9 3.5 4.2 8.2 7.6 11.6 12.4 2.9 4.1 4.6 6.6 5.3 7.3 3.7 4.7 7.2 9.6 10.5 14.8 3.4 4.5 6.6 9.2 9.6 14.1l.8 1.9c.2.7.8 1.2 1.6 1.4.5.1.7.4.6.8v.6c-.4.3-.8.5-1.3.5-.4 0-.8-.2-1-.6l-.5-.6a238.2 238.2 0 0 0-71.6-78.4c-1.7-3.4-5.7-6.2-12-8.6l-3-2.1Z" fill="#e03b1a"/><path d="m15 190.3 4.1 1.5 5.4 3.2c.2.3.6.7 1.2 1l-1.7.2h-.7l-4-2.6-4.2-3.3Z" fill="#f87d2f"/><path d="M64.8 192.3a171 171 0 0 1 25.4 21.2l9.5 11.2c-3.2-2.2-7-5.9-11.5-11-3.9-4.5-10.1-9.9-18.9-16a76.2 76.2 0 0 0-5.1-4.5c0-.3.2-.6.6-.9Z" fill="#f6a676"/><path d="m27.2 191 3 1c.7.4 1.6 1 2.5 1.8a27 27 0 0 0 4.8 3.4c.9.5 1.3 1.3 1.2 2.4a5 5 0 0 0-1.8-.9 27.3 27.3 0 0 0-8.3-6c-1.2-.8-1.6-1.4-1.4-1.7Z" fill="#fca05b"/><path d="m90.7 194.9 6.6 8.4 18.2 20.3 19 18.6 3.2 3.7c.4.5.4 1.3-.1 1.7a9.9 9.9 0 0 1-5.6 2.3 312.1 312.1 0 0 1-28.2-30.9L93 200.5l-3.7-5.6v-.2c0-.2 0-.3.2-.4h.3l.9.6Z" fill="#ddb297"/><path d="M11.2 191.5c1 .5 2.2.8 3.3 1 .8 0 .9-.2.2-.6l-.6-.4 5.2 2 4 2.6c3.2 2.2 6.4 4.4 9.6 6.4 1.4.9 2.8 2.3 4.3 4.3-4.4-2.7-8.7-5.5-12.9-8.3a34.9 34.9 0 0 0-6-3.2l-6.3-2.8c-.6-.2-.9-.6-.8-1Z" fill="#dd5121"/><path d="M-81.4 214.2a232.1 232.1 0 0 1 33.6 32.2c12.7 15.3 23.4 31 32.1 47l9.4 16.8 7.5 18.2c-.5-.2-.9-.1-1 .1a2 2 0 0 0-.3 1l-1.3-3.6c-1.2-5.3-4-10-8.4-14l-4.4-9.4a4 4 0 0 0-.9-1.2 18.9 18.9 0 0 1-3.7-4.9 27 27 0 0 0-4.3-6 16.1 16.1 0 0 1-3.4-6c-2-5.8-5.2-11-9.7-16a8 8 0 0 1-1.7-2.7 22 22 0 0 1-.8-3.2c-.1-.5-.4-1-.7-1.3l-4-3.8a24 24 0 0 0-4-6.4c-.8-.8-1.5-1.3-2.3-1.3-.8 0-.9.3-.3.8 1.6 1.4 2.5 2.6 2.7 3.5l-4-4.9-5.5-7.5-9.5-11.2-.1-.1-13.7-13a166.4 166.4 0 0 0-27.5-20c-9.6-5.2-16-8.9-19-11-.2 0-.2-.3 0-.5l.3-.5a88 88 0 0 0 10.5 5.8c3.5 1.7 6.8 3.6 10 5.6 8.2 5.4 16.3 11.2 24.4 17.5Z" fill="#685350"/><path d="m2.6 191.3 4.6 2.2 12.5 7.1A238.2 238.2 0 0 1 91.3 279a31.5 31.5 0 0 1-7.2-8.6c-.3-.4-.5-1-.6-1.4 0-.6-.3-1-.7-1.4l-3-3.7a1674.7 1674.7 0 0 0-33-34c-3-3-6.4-6.1-10-9.4-2-1.8-5-5.3-8.3-7.4a23.5 23.5 0 0 1-4.4-3.5 20 20 0 0 0-5.3-4c-2.2-1-4.2-2.3-6.1-3.8l-5.8-4.5c-.4-.3-.6-.7-.8-1.1 0-.4-.2-.6-.4-.8-2.7-1.7-3.7-3-3.1-4.1Z" fill="#f6a676"/><path d="M7.6 192c6.4 2.4 10.4 5.2 12.1 8.6l-12.5-7.1h.5c.5 0 .7-.2.8-.6.1-.7-.2-1-.9-.9Z" fill="#ce300f"/><path d="M24.5 195c1.7 0 3.1.5 4.3 1.7l-2.6-.4c.4 0 .3 0-.5-.3-.6-.3-1-.7-1.2-1Z" fill="#f98a43"/><path d="M-2.4 194.5c2 0 3.9.8 5.8 2.2a9.5 9.5 0 0 0 4 2.6c.2-.3.7 0 1.5.7v1.2l-7.6-4.4a3 3 0 0 0-1.4-.4c-1.1 0-2-.7-2.3-2Z" fill="#fd9040"/><path d="M68.4 201c-.9 0-1.8 0-2.8-.4h-.1l-.1.4a.6.6 0 0 1-.7.6l-1.2-.3a7 7 0 0 1-1.8-3v-.1a1 1 0 0 1 1.5-.8l5.2 3.6Z" fill="#fdaf77"/><path d="M69.3 197.6c8.8 6.2 15 11.6 18.9 16a59 59 0 0 0 11.5 11 155 155 0 0 1 19.9 31.9c-1.6 1.4-3 1.8-4.3 1.4.8-.1 1.3-.3 1.3-.5.3-.9 0-1.8-.6-2.4a22 22 0 0 1-4.6-5.3 262 262 0 0 0-15-21.2 25.7 25.7 0 0 0-3.6-4c-.5-.3-.7-.2-.9.3l-.1.7c-7-9-14.6-17.3-22.8-24.6-.5-2-.4-3 .3-3.3Z" fill="#f17335"/><path d="M23.3 196.1c.3.2.5.2.7 0l8 5 2.7 1.8 12.7 10.8c2.4 2.2 4.6 4.4 6.9 6.8 1.5 1.6 3.9 3.8 7 6.6 5 4.3 9 9.2 12.4 14.7 1.7 2.8 3.5 5.1 5.4 7.1l5.9 6 .6 1.4.3 6.5c.7-.1 1.3.4 1.8 1.5l1.1 1.5a3 3 0 0 0 2 .5c.6 0 1 0 1.4.5.3.3.5.8.5 1.2v.2a1 1 0 0 1-1.4.8 14.5 14.5 0 0 1-5.5-4.6c-1-1.3-1.4-3.3-3.1-4.7-.4-.3-.7-.3-.9 0l-.3 1.2c-3.3-5.2-6.8-10-10.5-14.7-.7-.8-2.4-3.3-5.3-7.4-3.4-4.8-8-8.2-11.6-12.4-1.6-2-3.4-4-5.2-6a3 3 0 0 1-.7-1.3l-.2-1c0-.5-.2-1-.5-1.4-3-4-6.3-7.4-10.3-9.9-1.5-2-3-3.4-4.3-4.3-3.2-2-6.4-4.2-9.6-6.4Z" fill="#e45924"/><path d="m24 196.2 1.7-.2c.8.2 1 .3.5.3l6.1 4.1-.3.8-8-5Z" fill="#f67733"/><path d="m26.2 196.3 2.6.4 5 4-1.5-.3-6.1-4Z" fill="#fc8a36"/><path d="M28.8 196.7c2.1 1.5 3.9 2.2 5.1 2a6 6 0 0 1 2.4 1.4c.3.3.3.6 0 1l-.3.4c-.1.2 0 .5.1.7.2.2.5.4 1 .3.5 0 1 .3 1.3.7 1.6 1.8 3.7 3.2 6.1 4 .6.3 1 .8 1 1.4 0 1.8 1 2.8 3 3l1.4.5 3 1.9c.9.5 1.3 1.2 1.2 2.1 0 .8.3 1.2 1.1 1.2.9 0 1.6.3 2.1 1 .8.8 1.7 1.4 2.7 1.9.3.2.6.5.6.9 0 .5.2.7.7.7.2 0 .4 0 .5.2l26.5 29.2c.2.2.4.4.7.4 1.3.3 2.3 1 2.8 2.3.8.5 1 1.2.7 2-.3.5-.3.9 0 1.3 1.1 2.1 2.5 3.3 4 3.7a46 46 0 0 0 19.1-.6c-3 2-5.4 2.7-7.3 2.3a56.9 56.9 0 0 0-22.4.2l-.3-6.5c0-.5-.3-1-.6-1.3l-5.9-6c-2-2-3.7-4.4-5.4-7.2a64.5 64.5 0 0 0-12.3-14.7c-3.2-2.8-5.6-5-7.1-6.6-2.3-2.4-4.5-4.6-6.9-6.8-2.7-3.2-5.5-6-8.5-8.7-.9-.9-2-1.6-3-2.1l-2.1-2.3-5-4Z" fill="#f17d43"/><path d="m-12.8 195 5.8 2.4c1 1 2.2 1.8 3.7 2.3l2 1.5 8.6 6.1c5.7 5 11.4 10 17.2 14.7 2.6 2.2 5.1 5.1 7.9 7.4 2.6 2.3 4.6 4.1 5.9 5.5 5.5 6 11 12.2 16.4 18.4a185 185 0 0 1 8.7 10.8l8.3 11 4.2 6.5c1.4 2.3 2.8 4.4 4.4 6.4.3.4.7.7 1.2.7l.7.4c.5.5.4.7-.2.8l-1.6.2c-.8-.4-1.5-1.3-2-2.6l-11.3-16a370.4 370.4 0 0 0-59.1-61c-6.6-5-13.6-9.5-20.8-13.4l-.9-.7c.2-.5.5-1 1-1.4Z" fill="#bb2306"/><path d="m123.5 202.4 5.1 6a16 16 0 0 0 1 11.7c1 1.8 1.5 3.6 1.6 5.3 0 .5.2 1 .5 1.4 1.2 2.2 1.8 4.5 2 7 0 .5-.3.8-.7.8a1 1 0 0 1-.6 0c-.2-.2-.3-.1-.3.2a6 6 0 0 1-.5 2.4c-1.3-1-2.4-2-3.4-3.4-.3-.4-.3-.9-.2-1.4.5-1.3 0-2.2-1.3-2.9-.5-.2-.7-.7-.7-1.3l.1-.6c.2-.5.1-1-.1-1.4a15.6 15.6 0 0 1-2.3-8c0-2.6-1-4.2-2.3-6.2a6 6 0 0 1-1.2-2.4c-.5-3.7.6-6.1 3.3-7.2Z" fill="#df652d"/><path d="M36.9 198.7c.5 0 1.1.4 1.8.9 1.7.8 3 2 3.8 3.4.2.5.1.7-.5.5a8 8 0 0 1-3.5-2.8l-1.6-2Z" fill="#fc9953"/><path d="m68.4 201 .6-.1c8.2 7.3 15.9 15.5 22.8 24.6l12.8 17.5c-.4 2-1 1.8-2.2-.5a6 6 0 0 0-1.1-1.6 61 61 0 0 1-10.1-13.5c-.2-.4-.6-.6-1.1-.6h-.5l-.5-.2c-1.4-1.4-3-2.5-4.7-3.3a3 3 0 0 1-1.2-1c-3-4-6.7-7-9.5-11.2a61.8 61.8 0 0 0-10.2-9.8l1.2.3h.1c.3 0 .6-.2.6-.5l.1-.5c1 .3 2 .5 3 .4Z" fill="#f6a676"/><path d="M-12.8 197.1a169.4 169.4 0 0 1 22.5 15h-1c-.8 0-.9.2-.2.8a64 64 0 0 0 2.3 2c1 1 1.5 1.9 1.2 3-.2.4 0 .9.2 1.3s.6.7 1 .9l1.3.8a89 89 0 0 1 3.5 4c3.4 3.8 7.5 7.2 10.8 11a89 89 0 0 0 7 7.2 81 81 0 0 1 9.6 10.5c.5.7 1.3 1 2 1.4.5.3.9.6 1.1 1 1.5 2.3 3.2 4.5 5 6.4l5.3 6.2c2.4 2.8 5.3 7 8.9 8.2h.2l.3-.7c0-.2 0-.5-.3-.6a7.2 7.2 0 0 1-3.2-2.8c-.4-.7-.2-1 .6-.8.3 0 .6.2.9.4.3.2.5.1.7-.2l.2-.5 11.3 15.9-.1.9c0 .6-.4.9-1 .8-.7-.2-1.1-.6-1.3-1.4-.3-1.2-1-2-1.9-2.4H74l-.1.4a1 1 0 0 1-1.7.5 65 65 0 0 0-7.6-7.7c-1.3-1.1-2.7-3-4.4-5.8-1.3-2-2.7-4-4.3-5.7a457 457 0 0 1-11.5-12.8l-3.7-3.6a15 15 0 0 1-2.3-2.7c-.6-1-1.4-2-2.2-2.7-3.7-3-7.6-6.5-11.5-10.3a3 3 0 0 1-.8-1.3c-.9-2.7-2.6-4.8-5.1-6.2-.4-.2-.6-.5-.8-.9 0-.5-.3-.8-.8-1-.9-.4-1.6-1-2.1-1.7-.3-.4-.7-.7-1.2-.9a5.9 5.9 0 0 1-3.6-3 36.4 36.4 0 0 0-2-3.7c-3-3.3-6-4.7-9-4.2l-6.7-6.1a24 24 0 0 0-5.9-8.3c-.2-.2-.2-.4 0-.6h.5Z" fill="#f88d54"/><path d="M60.4 201.2c1.2.8 1.9 1.8 2 2.7l-3.9-2.8c-.5-.4-.5-.6.2-.5l1.7.6Z" fill="#f98a43"/><path d="M32.3 200.4c.5.2 1 .3 1.5.2l2 2.3c-.1.2-.5.2-1 0l-2.8-1.7c0-.3.2-.5.3-.8Z" fill="#f67a34"/><path d="m9 200 6.8 5.3c-1.6-.5-2-.4-1.4 0l-5.4-4V200Z" fill="#fe9748"/><path d="M-1.3 201.2c2.2-.3 4 0 5 1 3 2.6 5 4.2 6.2 5 .1.5.6 1 1.4 1.3l.1.2-.2.3c-.3.2-.5.2-.7 0-1-.9-2-1.4-3.2-1.7l-8.6-6.1Z" fill="#ee6128"/><path d="M5.8 201.2c2.4-.1 4.1 1 5.2 3.1-1 0-1.8-.5-2.7-1.4-.4-.3-.8-.6-1.3-.6-.6-.1-1-.5-1.2-1.1Z" fill="#fb8733"/><path d="M34.7 203c.6.1 1 0 1.1-.1a11 11 0 0 1 3.1 2c3 2.7 5.8 5.6 8.5 8.8l-12.7-10.8Z" fill="#f67733"/><path d="M11 204.3c1.4.7 2.5 1 3.4 1-.7-.4-.2-.5 1.4 0 9.2 7 18.2 14.3 27 22.2 1.4 1.3 2.8 2.8 4 4.3 1.6 2 3 3.5 4 4.5 6.8 6.6 13.2 13.6 19.3 21 .3.4.5.8.6 1.4.3 1.3 1 2.5 2 3.5.9.9 1.7 1.9 2.4 3a40 40 0 0 0 6.1 8c.4.3.6.7.7 1.2 0 .4.3.7.7.8.5.1.8.4 1 .8.4.6.5 1.4.4 2.2a454 454 0 0 0-14-16.5l-1.6-2.2c-.8-1.2-2-1.6-2.9-2.6-1-1.3-2-2.7-2.9-4.2a41.3 41.3 0 0 0-10.2-11 5 5 0 0 1-1.7-2.4c-.1-.5-.4-1-.7-1.4-7-8.3-15-15.5-24-21.8-1.1-.8-1.5-2.4-2.5-3L11 204.2Z" fill="#f17d43"/><path d="m-7.4 206 6.7 6.1L17.4 234l6.5 10c.8 2.8 2 5.3 3.4 7.5a41.5 41.5 0 0 1 5.1 9c.3.4.1.7-.4.8l-1.9-.1c-.5-.1-.9 0-1 .6-.2.4-.5.7-1 .8l-.6.5a3.6 3.6 0 0 1-3.6 1.3 1 1 0 0 0-1 .3l-.6.5c-.4.3-.7.4-1.1 0a3 3 0 0 0-2.6-.4c-.5.1-.7.4-.8 1v.7c0 .3.2.5.5.5.2 0 .4 0 .5.2.5.3.4.5-.1.6a5 5 0 0 0-2.2 1L2.4 247l4.8-4.4c.2-.3.3-.5.2-.8 0-.3-.2-.5-.4-.7-.3-.4-.4-.8-.2-1.3.1-.4.5-.6 1-.8.4-.1.6-.4.6-.8v-.7c0-.6.3-.7.8-.2.6.6 1.2.7 2 .2.4-.2.7-.7.8-1.2.2-1.4.6-2.8 1.3-4.2.2-.5.2-1-.2-1.4l-8.5-11-12-13.6Z" fill="#4c3b3b"/><path d="M7.3 207.3c1.2.3 2.2.8 3.2 1.7.2.2.4.2.7 0l.2-.3v-.2c-1-.4-1.4-.8-1.5-1.3 1.4.8 2.6 1.7 3.8 2.8a197 197 0 0 1 5.6 5l5.7 4.8a26 26 0 0 1 4.2 4 31 31 0 0 0 4.1 4c4 3 6.9 5.5 8.8 7.6a5465 5465 0 0 0 33.7 37.3c1 1 1.5 2 1.9 3.2.1.5.4 1 .8 1.3l3.6 3c.4.3.6.7.7 1.2a7 7 0 0 0 3.1 5 1.5 1.5 0 0 1 .1 2.4c-2 1.5-3.8 2-5.6 1.3l1.6-.2c.6 0 .7-.3.2-.8l-.7-.4c-.5 0-.9-.3-1.2-.7-1.6-2-3-4.1-4.4-6.4-1.7-2.8-3.1-5-4.2-6.5l-8.3-11c-3-4-5.9-7.6-8.7-10.8a937.2 937.2 0 0 0-16.4-18.4 76.2 76.2 0 0 0-6-5.5c-2.7-2.3-5.2-5.2-7.8-7.4-5.8-4.7-11.6-9.7-17.2-14.7Z" fill="#dd5121"/><path d="M103.8 219c8.5 10.6 17.8 21 28.2 30.9l-5.9 4-6.5 2.6a149.2 149.2 0 0 0-20-31.8l-9.4-11.2v-.8c.3-.7.6-.7 1-.2 2.5 2.9 5 5.4 7.5 7.5.5.4.6.3.2-.2l-4.2-6.4c-.3-.5-.2-1 .3-1.3.2-.2.5-.2.8-.2.5 0 .9.3 1.2.8 1.8 3.5 4.1 5.6 6.8 6.3Z" fill="#422a2b"/><path d="M9.7 212a370.4 370.4 0 0 1 57.4 59.6l-.2.5c-.2.3-.4.4-.7.2a2 2 0 0 0-1-.4c-.7-.2-1 0-.5.8a7.2 7.2 0 0 0 3.2 2.8c.2.1.3.4.3.6l-.3.6c0 .2-.1.2-.2.1-3.6-1.1-6.5-5.4-8.9-8.2-1.8-2.3-3.6-4.3-5.3-6.2-1.8-2-3.5-4-5-6.3a3 3 0 0 0-1.1-1c-.7-.5-1.5-.8-2-1.5A81 81 0 0 0 36 243a89 89 0 0 1-7-7.2c-3.4-3.8-7.5-7.2-10.9-11a89 89 0 0 0-3.5-4l-1.3-.8c-.4-.2-.8-.5-1-.9-.3-.4-.4-.9-.2-1.4.3-1-.1-2-1.2-2.9a64 64 0 0 1-2.3-2c-.7-.6-.6-.9.3-.9h1Z" fill="#fa9d6d"/><path d="m4.6 219.7 8.5 11c.4.3.4.8.2 1.3-.7 1.4-1.1 2.8-1.3 4.2-.1.5-.4 1-.8 1.2-.8.5-1.4.4-2-.2-.5-.5-.7-.4-.7.2v.7c0 .4-.3.7-.7.8-.5.2-.9.4-1 .8-.2.5-.1 1 .2 1.3l.4.7c.1.3 0 .5-.2.8l-4.8 4.4-12.2-17c2.8-1.7 5-3.8 7-6.3.3-.5 1-.8 2-1.1.6-.1.8-.5.8-1l-.1-.5c-.1-.4 0-.6.4-.6l4.3-.7Z" fill="#5b4844"/><path d="M115.3 257.9c-.3.1-.7.2-1.2.1l-1.9-2-7.6-13-12.8-17.5.1-.7c.2-.5.4-.6.9-.3 1 .9 2.2 2.2 3.6 4a262 262 0 0 1 15 21.2 22 22 0 0 0 4.6 5.3c.7.6 1 1.5.6 2.4 0 .2-.5.4-1.3.5Z" fill="#bb2306"/><path d="M-96.6 221.8a14 14 0 0 1 5.5 2.9c0 .5.2.9.6 1.1 2 1.2 3.8 2.3 5.6 3.6.6.4 1.3.4 1.9 0l4.1 3.5c.4 1.6 1 2.7 1.9 3.5l3 2.1 2.5 2a5 5 0 0 0 3.1 1.3l7.8 7A329.5 329.5 0 0 1-11.5 324c4.4 9.3 7.3 16.7 9 22l.3 3.5-1.5 1.8a3 3 0 0 0-1.6-.4c-.3 0-.6 0-.8.3-.5.3-.7.7-.7 1.2 0 .4 0 .4-.3.1-.1-.2-.2-.2-.4-.1-.7-1.2-1-2.3-1-3.3.7 0 1.1.3 1.3.8a1 1 0 0 0 1.7.3c.6-.7.7-1.3.1-1.7 1-2 0-4-2.8-6a4 4 0 0 1-.6-2.2c0-2-.5-4-1.6-6-.2-.5-.3-1-.2-1.5.2-1.2-.2-2.2-1.1-3-.5-.3-1-.3-1.4 0-.7.5-.9 1.2-.6 2.2-.5.3-.7 1-.6 2-1.4-2.4-2.4-2.8-3-1.3l-1.3-3.3c-.5-1-1-2.1-1.3-3.3a16 16 0 0 0-3.2-6c-3.3-8.8-7.5-17.2-12.4-25.4-1-1.6-2.5-3-3.4-4.5-7-11.7-13.8-21.8-20.4-30.3-.7-1-2.6-3-5.8-6.4a20.2 20.2 0 0 0-5.5-6.5c-.7-2-2-3.5-4-4.5 0 .7 0 .7-.3-.1l-5-5.6-.6-1.2-.3-1.7c0-.5-.4-1-.9-1.3l-5.7-3.2-9-7.3-.2-.3Z" fill="#f46c34"/><path d="M32.1 251c-1.4 0-1 1.6 1.3 4.8-.8-.4-1.4-.4-1.6.3L24 243.9l-6.5-10c.6-.6 1.2-1 1.7-1s1 .3 1.5 1l8.6 10a26 26 0 0 1 3 7Z" fill="#dd5121"/><path d="m-72 232.1 10.2 10.3c.2 1.7 1.1 2.7 2.9 3l5 6c3.8 4.9 7.5 10 11 15.2a1875 1875 0 0 1 14.5 21.7c4.5 6.9 10.7 18.7 18.6 35.6l7.3 17.4c1.4 4.6 1.4 6.1 0 4.7-1.7-5.3-4.6-12.7-9-22a329.5 329.5 0 0 0-49-75.2l-6.4-9.2a2 2 0 0 0-1.2-.8 4 4 0 0 1-3.3-2.7 1 1 0 0 0-.8-.7.8.8 0 0 1-.4-.4c-.1 0-.2-.2-.1-.4.1-.6 0-1.1-.5-1.6-.4-.4-.3-.7.3-.8h1Z" fill="#85241c"/><path d="m24 244 7.8 12a923 923 0 0 1 25 48.4c1.5 3 3.5 5.7 5.1 8.7.4.6 1 1.2 1.7 1.9.9.7 1.3 1.4 1.4 2.2a96 96 0 0 1-28-11.4 12 12 0 0 1-4.4-5.2c-5-10.7-10.4-21.3-16-31.7a3 3 0 0 1 2-1c.6-.2.7-.4.2-.7a.8.8 0 0 0-.5-.2c-.3 0-.5-.2-.5-.5v-.8c0-.5.3-.8.8-.9a3 3 0 0 1 2.6.5c.4.3.7.2 1.1 0l.6-.6a1 1 0 0 1 1-.3c1.4.3 2.6-.2 3.6-1.3l.7-.5c.4-.1.7-.4.9-.8.1-.5.5-.7 1-.6.6.1 1.2.2 1.9 0 .5 0 .7-.3.4-.8a41.5 41.5 0 0 0-5-9 23.6 23.6 0 0 1-3.5-7.5Z" fill="#422a2b"/><path d="M32.1 251c8 8.8 15.4 18 22 27.6 2.4 3.2 2.8 4.8 1 5a103 103 0 0 0-14.8-19.2c-1-1.7-2.7-3.7-5.4-6a6.4 6.4 0 0 1-1.5-2.6c-2.3-3.2-2.7-4.8-1.3-4.8Z" fill="#bb2306"/><path d="m-51.2 249.1 3.9 5c1 1.5 2.2 2.6 3.8 3.3l4 3.8c.4.4.7.8.8 1.3.2 1 .4 2.1.8 3.2a8 8 0 0 0 1.7 2.7 43.7 43.7 0 0 1 9.7 16c.7 2.3 1.9 4.3 3.4 6a27 27 0 0 1 4.3 6c1 1.8 2.2 3.5 3.7 5 .4.3.7.7.9 1.1l4.4 9.4c.4 1.3.9 2.6 1.6 3.7a19 19 0 0 0 1.8 5.5 6.4 6.4 0 0 1 1.3 3.4c0 .5.2.9.4 1.3a18 18 0 0 1 2.7 9.3c0 .5.2.9.6 1.2l.5.3c.3.2.5.4.4.8-.4 2 0 3.8.8 5.4l-.1 3.5s0 .1-.1 0h-.5c-.2.1-.4.3-.4.6.2 2.3-.3 3.1-1.4 2.6l-.4-3.5c1.5 1.4 1.5-.1 0-4.7A56.8 56.8 0 0 0-7.8 324c-.3-.5-.7-.7-1.2-.7-.3 0-.6.2-.7.6-8-16.9-14.1-28.7-18.6-35.6A1875 1875 0 0 0-43 266.6c-3.5-5.2-7.2-10.3-11-15.3 0-.6.2-1 .4-1.4.3-.5.6-.5 1 0 .2.6.6 1 1 1.3.4.4.6.3.4-.2-.3-.7-.3-1.3-.1-1.9Z" fill="#7e5e66"/><path d="M33.4 255.8c.4 1.2.9 2 1.5 2.5 2.7 2.4 4.5 4.4 5.4 6a16 16 0 0 0 5.9 10.5c.9.8 1.5 1.6 1.9 2.3.4 1 .8 2 1 3 .5 1.7 1.1 3 1.8 4 3.3 5.2 6.5 10.3 9.6 15.5 2 3.4 6.9 8 14.6 13.7l4.7 5.3c1.3 1.5 1 2-.9 1.6l-14-3c0-.8-.4-1.5-1.3-2.2a6.5 6.5 0 0 1-1.7-2c-1.6-2.9-3.6-5.7-5-8.6a1158 1158 0 0 0-25-48.3c.1-.7.7-.7 1.5-.3Z" fill="#f46c34"/></g><path d="M43.7 152.9c0 .2-.1.2-.3 0l-3.8-3.9c-1-1.1-.9-1.6.7-1.3 2.5.5 3.6 2.2 3.4 5.2Z" fill="#5a333b" fill-rule="nonzero"/></g></svg>
